<?xml version="1.0" encoding="UTF-8" standalone="no"?>
<!-- Created with Inkscape (http://www.inkscape.org/) -->

<svg
   width="46.048828mm"
   height="17.317326mm"
   viewBox="0 0 46.048828 17.317326"
   version="1.1"
   id="svg1"
   sodipodi:docname="aequitas logo.svg"
   inkscape:version="1.3.1 (9b9bdc1480, 2023-11-25, custom)"
   xmlns:inkscape="http://www.inkscape.org/namespaces/inkscape"
   xmlns:sodipodi="http://sodipodi.sourceforge.net/DTD/sodipodi-0.dtd"
   xmlns:xlink="http://www.w3.org/1999/xlink"
   xmlns="http://www.w3.org/2000/svg"
   xmlns:svg="http://www.w3.org/2000/svg">
  <sodipodi:namedview
     id="namedview1"
     pagecolor="#ffffff"
     bordercolor="#000000"
     borderopacity="0.25"
     inkscape:showpageshadow="2"
     inkscape:pageopacity="0.0"
     inkscape:pagecheckerboard="0"
     inkscape:deskcolor="#d1d1d1"
     inkscape:document-units="mm"
     inkscape:zoom="5.8154882"
     inkscape:cx="74.6283"
     inkscape:cy="35.938513"
     inkscape:window-width="1920"
     inkscape:window-height="1016"
     inkscape:window-x="0"
     inkscape:window-y="0"
     inkscape:window-maximized="1"
     inkscape:current-layer="layer1" />
  <defs
     id="defs1">
    <linearGradient
       id="linearGradient3"
       inkscape:collect="always">
      <stop
         style="stop-color:#55cdfc;stop-opacity:0.49587622;"
         offset="0"
         id="stop3" />
      <stop
         style="stop-color:#f7a8b8;stop-opacity:0.5;"
         offset="1"
         id="stop4" />
    </linearGradient>
    <linearGradient
       inkscape:collect="always"
       xlink:href="#linearGradient3"
       id="linearGradient4"
       x1="55.702072"
       y1="54.877785"
       x2="101.6627"
       y2="54.877785"
       gradientUnits="userSpaceOnUse"
       gradientTransform="translate(-55.533595,-46.100927)" />
  </defs>
  <g
     inkscape:label="Layer 1"
     inkscape:groupmode="layer"
     id="layer1"
     transform="translate(-0.12437852,-0.11819564)">
    <rect
       style="mix-blend-mode:normal;fill:#f7f7f7;fill-opacity:0;stroke:url(#linearGradient4);stroke-width:0.352778;stroke-dasharray:none"
       id="rect3"
       width="45.696049"
       height="16.964548"
       x="0.30076751"
       y="0.29458463"
       ry="5.3710089" />
  </g>
  <g
     inkscape:groupmode="layer"
     id="layer2"
     inkscape:label="Layer 2"
     transform="translate(-0.12437852,-0.11819564)">
    <path
       id="text2"
       style="font-style:normal;font-variant:normal;font-weight:normal;font-stretch:normal;font-size:7.05556px;font-family:'Helvetica Neue';-inkscape-font-specification:'Helvetica Neue';letter-spacing:0px;word-spacing:0.264583px;fill:#004d40;fill-opacity:1;stroke-width:0.244499"
       inkscape:label="text2"
       d="m 18.242222,4.1033623 v 0.7681033 h 0.898273 V 4.1033623 Z M 5.9973811,4.1553314 4.7667938,8.8030515 H 5.7432536 L 5.9582839,7.8203933 H 7.1950698 L 7.4101003,8.8030515 H 8.3865601 L 7.1559727,4.1553314 Z m 23.5551829,0 v 4.6477201 h 0.93736 V 6.7852894 h 1.562427 V 6.0171841 H 30.489924 V 4.9234366 h 1.660165 V 4.1553309 Z m 3.02092,0 v 4.6477201 h 0.89827 V 4.1553314 Z m -12.606245,0.143037 v 1.0026827 h -0.455807 v 0.6117172 h 0.455807 v 2.0053659 c 0,0.1779321 0.0107,0.3252833 0.03237,0.4424582 0.02167,0.1171748 0.06079,0.2127717 0.11729,0.2865491 0.06071,0.069433 0.145151,0.1169966 0.253647,0.1430359 0.112834,0.021699 0.256467,0.032427 0.430057,0.032427 0.104163,0 0.201621,-0.00424 0.292753,-0.012874 0.09548,-0.00439 0.192926,-0.00662 0.292752,-0.00662 v -0.624643 c -0.03046,0.00439 -0.06255,0.00863 -0.0973,0.012874 H 21.18441 c -0.130192,0 -0.216928,-0.027976 -0.260327,-0.084391 -0.03895,-0.060765 -0.05863,-0.1605486 -0.05863,-0.2994217 V 5.9127679 H 21.38611 V 5.3010511 H 20.86549 V 4.2983684 Z M 6.5700019,4.9625319 h 0.013358 L 7.032488,7.052289 H 6.1208687 Z m 3.3785118,0.247453 c -0.3037869,0 -0.5467344,0.049888 -0.729007,0.1497112 C 9.037234,5.4595121 8.896412,5.5938043 8.7965962,5.7630575 8.7011192,5.9323105 8.6358325,6.1258396 8.6011136,6.3428304 c -0.030374,0.2169907 -0.045298,0.4422097 -0.045298,0.6765603 0,0.2213309 0.00847,0.4428334 0.025747,0.6641639 0.021699,0.2213306 0.076272,0.4209126 0.1630614,0.5988446 0.086799,0.1779334 0.2210886,0.32109 0.4033617,0.4295856 0.1822721,0.1084956 0.4364187,0.1630612 0.7619053,0.1630612 0.429642,0 0.743931,-0.1063197 0.943562,-0.3189709 0.199636,-0.2126514 0.308289,-0.5232215 0.325649,-0.9311647 H 10.3719 c -0.02604,0.2213301 -0.0736,0.3864088 -0.143035,0.4949044 -0.06943,0.1084954 -0.180428,0.1625844 -0.3323209,0.1625844 -0.082464,0 -0.1519385,-0.021453 -0.2083557,-0.064852 C 9.6317702,8.1698178 9.5865452,8.1087242 9.5518275,8.0349475 9.5171089,7.95683 9.490993,7.8700978 9.4736335,7.774621 9.4606145,7.6748049 9.4540855,7.5731562 9.4540855,7.4690006 V 7.1886499 H 11.231072 V 6.9869695 c 0,-0.2690689 -0.0172,-0.5120164 -0.05199,-0.7290075 C 11.144382,6.0366312 11.079102,5.8501086 10.983625,5.698214 10.888148,5.5419815 10.755712,5.4226046 10.586459,5.3401472 10.421541,5.2533514 10.208902,5.2099849 9.9485137,5.2099849 Z m 2.7410553,0 c -0.368893,0 -0.640295,0.1454913 -0.813886,0.4362603 -0.173592,0.2864274 -0.260325,0.755071 -0.260325,1.4060438 0,0.6509724 0.08671,1.1172817 0.260325,1.3993701 0.173591,0.2820881 0.444993,0.4233869 0.813886,0.4233869 0.169238,0 0.312406,-0.030315 0.429573,-0.091058 0.121527,-0.065099 0.229691,-0.1672228 0.32518,-0.3060975 h 0.01324 V 9.9297058 H 14.35582 V 5.3010515 h -0.859129 v 0.3709397 h -0.01327 C 13.383599,5.507078 13.270753,5.3900359 13.144889,5.3205995 13.023385,5.2468225 12.871837,5.2099849 12.689569,5.2099849 Z m 10.233273,0 c -0.16926,0 -0.330138,0.019595 -0.482031,0.058647 -0.147563,0.034723 -0.27766,0.095341 -0.390493,0.1821325 -0.108498,0.082465 -0.195228,0.192969 -0.260327,0.3318437 -0.06503,0.1345344 -0.09771,0.3038058 -0.09771,0.5077783 v 0.084864 h 0.807196 v -0.09774 c 0,-0.1388739 0.03462,-0.2493868 0.103947,-0.3318431 0.0694,-0.082465 0.173898,-0.1239655 0.312769,-0.1239655 0.151895,0 0.258214,0.039167 0.318962,0.1172895 0.06502,0.073768 0.09775,0.1777611 0.09775,0.3122959 0,0.1171751 -0.02615,0.2062426 -0.07827,0.2670007 -0.05213,0.060764 -0.145327,0.1087948 -0.27986,0.1435124 l -0.50777,0.1363616 c -0.156234,0.043399 -0.291013,0.093288 -0.403847,0.1497106 -0.108497,0.056425 -0.199413,0.1282354 -0.273201,0.2150319 -0.0694,0.082465 -0.121665,0.1845817 -0.156374,0.3060965 -0.03483,0.1171753 -0.05201,0.2579977 -0.05201,0.4229098 0,0.1171754 0.01494,0.2365522 0.04538,0.3580674 0.03046,0.1171751 0.07851,0.2234941 0.143502,0.31897 0.06502,0.095472 0.151831,0.1714871 0.260326,0.2279045 0.108498,0.052068 0.240938,0.078184 0.397172,0.078184 0.216991,0 0.392796,-0.026116 0.527327,-0.078184 0.138874,-0.05642 0.260103,-0.1757945 0.364265,-0.3580663 h 0.01324 c 0.01291,0.060765 0.0261,0.1237102 0.03899,0.1888067 0.01727,0.060765 0.04119,0.1190401 0.07157,0.1754582 h 0.859171 C 24.259208,8.6988953 24.228849,8.6014403 24.211535,8.5103035 24.19851,8.4191681 24.191953,8.2914028 24.191953,8.1264903 V 6.2841856 c 0,-0.1562332 -0.01717,-0.2993911 -0.05201,-0.4295841 -0.03035,-0.1345351 -0.0914,-0.2497182 -0.182537,-0.3451941 -0.09112,-0.095476 -0.21891,-0.1691523 -0.383814,-0.2212291 -0.164926,-0.052075 -0.381752,-0.078191 -0.650819,-0.078191 z m 3.072413,0 c -0.23001,0 -0.42773,0.027976 -0.592646,0.084382 -0.160569,0.056424 -0.292529,0.1324282 -0.396685,0.2279053 -0.104165,0.095471 -0.180169,0.2083232 -0.227905,0.3385179 -0.04773,0.125855 -0.07155,0.2606242 -0.07155,0.4038387 0,0.2473701 0.06247,0.4511437 0.188332,0.611718 0.12586,0.1562326 0.312855,0.2779454 0.56022,0.3647417 l 0.631267,0.2279039 c 0.08672,0.034726 0.162816,0.082273 0.227914,0.1430368 0.06502,0.056419 0.09772,0.1408156 0.09772,0.2536506 0,0.138873 -0.04159,0.2433346 -0.123964,0.312771 -0.08256,0.069433 -0.19297,0.1039395 -0.331845,0.1039395 -0.151892,0 -0.268933,-0.045711 -0.351396,-0.1368375 -0.07813,-0.095469 -0.11727,-0.2190431 -0.11727,-0.3709372 V 7.6573308 h -0.807178 v 0.1239641 c 0,0.1692522 0.01968,0.3231323 0.05863,0.4620069 0.03895,0.1345335 0.106201,0.2497172 0.201686,0.3451936 0.09981,0.095472 0.23225,0.1668149 0.397153,0.2145538 0.169262,0.047734 0.379566,0.07199 0.631268,0.07199 0.19096,0 0.364902,-0.019595 0.521134,-0.058648 0.160571,-0.039065 0.297204,-0.1043467 0.410038,-0.1954826 0.117176,-0.091133 0.208101,-0.203985 0.273201,-0.3385197 0.06502,-0.1388729 0.09772,-0.301617 0.09772,-0.4882287 7e-6,-0.2647302 -0.05875,-0.4731748 -0.175932,-0.6250688 C 26.97803,7.0128667 26.778451,6.8874368 26.49636,6.7919611 l -0.5402,-0.182608 c -0.151888,-0.047738 -0.25588,-0.1060199 -0.31229,-0.1754578 -0.05213,-0.069434 -0.07824,-0.1477826 -0.07824,-0.2345785 0,-0.1258547 0.04107,-0.2191176 0.123488,-0.2798745 0.0867,-0.065099 0.186583,-0.09774 0.299415,-0.09774 0.147559,0 0.249682,0.043365 0.306102,0.1301631 0.06073,0.082464 0.091,0.2148909 0.091,0.3971641 h 0.807214 V 6.2059927 c 0,-0.3168069 -0.09746,-0.56209 -0.29275,-0.7356822 C 26.704884,5.2967179 26.40318,5.2099849 25.995233,5.2099849 Z m 9.370766,0 c -0.256044,0 -0.473352,0.041024 -0.651285,0.1234881 -0.173593,0.078117 -0.314417,0.195635 -0.422914,0.3518681 -0.108497,0.151894 -0.186843,0.3426113 -0.234578,0.5726209 -0.04773,0.2300103 -0.07152,0.4948795 -0.07152,0.794327 0,0.3037881 0.02191,0.5728497 0.06526,0.8072004 0.04335,0.2300107 0.117076,0.4230627 0.221224,0.5792967 0.10416,0.1518927 0.24546,0.2647416 0.423394,0.3385179 0.177934,0.069433 0.401286,0.1020819 0.670354,0.097741 0.256057,0 0.470557,-0.036843 0.644141,-0.1106156 0.17793,-0.073768 0.32157,-0.1866246 0.430069,-0.3385176 0.108499,-0.1562341 0.186362,-0.3497628 0.234098,-0.5797736 0.04773,-0.2300107 0.07153,-0.4944017 0.07153,-0.7938502 0,-0.3081271 -0.02139,-0.5771895 -0.06474,-0.8071993 C 36.637587,6.0150791 36.563911,5.822027 36.459752,5.6657927 36.35561,5.509559 36.214311,5.3943759 36.036381,5.3205995 35.858449,5.2424825 35.635084,5.2056454 35.366012,5.2099849 Z m -20.411255,0.091063 v 2.5975352 c 0,0.3515248 0.07591,0.602859 0.227918,0.754753 0.156231,0.1475545 0.377247,0.2217066 0.663677,0.2217066 0.195297,0 0.369243,-0.036843 0.521139,-0.110616 0.151895,-0.073768 0.275462,-0.1978236 0.37094,-0.3714157 h 0.01287 v 0.4100372 h 0.859173 v -3.501997 h -0.898267 v 2.3238593 c 0,0.3862442 -0.158073,0.5792961 -0.474873,0.5792961 -0.134532,0 -0.232473,-0.034498 -0.293224,-0.1039395 -0.06076,-0.073768 -0.091,-0.2020176 -0.091,-0.3842898 V 5.3010511 Z m 3.287456,0 v 3.5020012 h 0.898273 V 5.3010512 Z m 18.796848,0 0.761431,3.5019999 h 1.041772 l 0.435788,-2.4864438 h 0.01324 l 0.462002,2.4864444 h 1.022248 L 41.53079,5.3010489 h -0.859631 l -0.422911,2.4869199 h -0.01325 L 39.772976,5.3010515 h -0.976462 l -0.436266,2.4869196 h -0.01282 L 37.93734,5.3010511 Z M 9.9160925,5.821702 c 0.091133,0 0.1648105,0.019595 0.2212295,0.058647 0.06077,0.034731 0.106459,0.088808 0.136839,0.1625847 0.03473,0.069433 0.0585,0.1566465 0.07151,0.2608022 0.01301,0.099817 0.02188,0.2168576 0.02624,0.3513925 H 9.4540855 V 6.5182886 c 0,-0.082464 0.00647,-0.1649954 0.019553,-0.2474529 0.017365,-0.082464 0.043481,-0.1561312 0.078185,-0.2212284 0.034721,-0.069433 0.079946,-0.1235271 0.1363609,-0.1625842 0.060764,-0.043399 0.136768,-0.065313 0.2279081,-0.065321 z m 25.4499285,0 c 0.182279,0 0.30818,0.095597 0.377614,0.2865489 0.0694,0.1909526 0.103946,0.5057163 0.103946,0.9440381 0,0.4383217 -0.03462,0.7526097 -0.103946,0.9435613 -0.06941,0.1909518 -0.195335,0.2865489 -0.377614,0.2865489 -0.108497,0 -0.19523,-0.030314 -0.260328,-0.091058 -0.06502,-0.060764 -0.114991,-0.1451553 -0.149702,-0.2536509 -0.03046,-0.1084953 -0.04988,-0.2390708 -0.05863,-0.3909651 -0.0094,-0.1518933 -0.01324,-0.3164949 -0.01324,-0.4944278 0,-0.1779324 0.0051,-0.3430109 0.01324,-0.4949051 0.0094,-0.151893 0.02818,-0.281993 0.05863,-0.3904885 0.03476,-0.1084955 0.08462,-0.1933693 0.149702,-0.2541277 0.06501,-0.060765 0.151831,-0.091058 0.260328,-0.091074 z M 12.982305,5.899888 c 0.199631,0 0.327403,0.097455 0.383812,0.2927465 0.06076,0.1909516 0.09152,0.4777429 0.09152,0.8596462 0,0.3819045 -0.03089,0.6705541 -0.09152,0.8658456 -0.05652,0.1909517 -0.184181,0.2860722 -0.383812,0.2860722 -0.19528,0 -0.323533,-0.095115 -0.384278,-0.2860722 -0.05652,-0.1952915 -0.08438,-0.4839411 -0.08438,-0.8658456 0,-0.3819033 0.02786,-0.6686946 0.08438,-0.8596462 0.06069,-0.1952919 0.188998,-0.2927465 0.384278,-0.2927465 z m 10.350578,1.1523957 v 0.6899104 c 0,0.095472 -0.01768,0.1780156 -0.05252,0.2474539 -0.03469,0.069433 -0.07987,0.1258605 -0.136359,0.1692589 -0.05212,0.043399 -0.110825,0.076037 -0.175925,0.097741 -0.06501,0.017365 -0.128055,0.025747 -0.188819,0.025747 -0.121504,0 -0.208233,-0.04757 -0.260327,-0.1430354 -0.05212,-0.095472 -0.07827,-0.2106591 -0.07827,-0.3451934 0,-0.1562346 0.03908,-0.2798047 0.11729,-0.3709408 0.07819,-0.091133 0.20822,-0.1564239 0.390488,-0.1954826 0.05652,-0.013029 0.119365,-0.032598 0.188807,-0.058647 0.0694,-0.030369 0.134726,-0.069071 0.195489,-0.116813 z" />
  </g>
  <g
     inkscape:groupmode="layer"
     id="layer3"
     inkscape:label="Layer 3"
     transform="translate(-0.12437852,-0.11819564)">
    <path
       id="text3"
       style="font-style:normal;font-variant:normal;font-weight:normal;font-stretch:normal;font-size:3.175px;font-family:'Helvetica Neue';-inkscape-font-specification:'Helvetica Neue';fill:#00a69f;fill-opacity:1;stroke-width:0.264583"
       d="m 6.4655935,11.203307 v 0.343131 H 6.808725 v -0.343131 z m 8.8743935,0 v 0.343131 h 0.342615 v -0.343131 z m 1.5875,0 v 0.343131 h 0.342615 v -0.343131 z m 10.045382,0 v 0.343131 H 27.316 v -0.343131 z m 13.163538,0 v 0.343131 h 0.343131 v -0.343131 z m -35.3694178,0.02532 v 2.267045 h 0.7177856 c 0.4254496,0 0.6986654,-0.241259 0.6986654,-0.619083 0,-0.384175 -0.1590438,-0.533293 -0.4066935,-0.577743 v -0.0067 c 0.2254248,-0.06985 0.333313,-0.237956 0.333313,-0.51418 0,-0.40005 -0.2727155,-0.549321 -0.6092652,-0.549321 z m 6.3055578,0 -0.644405,2.267045 h 0.377755 l 0.146244,-0.555521 h 0.663526 l 0.139526,0.555521 h 0.377755 l -0.596863,-2.267045 z m 3.578593,0 v 0.759127 h -0.0067 c -0.0635,-0.1524 -0.202906,-0.244429 -0.387056,-0.244429 -0.26035,0 -0.5271,0.117091 -0.5271,0.875915 0,0.587374 0.158573,0.920874 0.558623,0.920874 0.244474,0 0.330204,-0.143123 0.374654,-0.254248 h 0.0062 v 0.209806 h 0.324011 v -2.267045 z m 7.451742,0 c -0.301625,0 -0.540019,0.161909 -0.540019,0.485759 0,0.12065 0.06687,0.247728 0.146245,0.371553 l 0.08578,0.127124 -0.143143,0.108004 c -0.193675,0.14605 -0.317294,0.346112 -0.317294,0.593762 0,0.238125 0.142752,0.625285 0.666626,0.625285 0.257175,0 0.425492,-0.104878 0.571542,-0.238228 l 0.136425,0.193786 h 0.383956 l -0.307991,-0.432015 c 0.155575,-0.219074 0.193786,-0.495333 0.193786,-0.615983 v -0.02842 h -0.28577 v 0.04444 c 0,0.12065 -0.03491,0.257332 -0.08888,0.346232 l -0.396875,-0.558622 0.117823,-0.08578 c 0.161924,-0.12065 0.275952,-0.266907 0.275952,-0.476457 0,-0.377824 -0.329886,-0.460437 -0.498161,-0.460437 z m 1.936316,0 v 2.267045 h 0.362252 v -1.028877 h 0.79685 v -0.304375 h -0.79685 v -0.628902 h 0.847493 v -0.304891 z m 5.407422,0 v 2.267045 h 0.342614 v -1.886189 h 0.0062 l 0.457336,1.886189 h 0.304891 l 0.457336,-1.886189 h 0.0062 v 1.886189 h 0.343131 v -2.267045 h -0.552938 l -0.393257,1.679484 h -0.0067 l -0.399976,-1.679484 z m 2.251025,0 v 2.267045 h 1.238167 V 13.190782 H 32.05938 v -1.962154 z m 1.927014,0 v 0.304891 h 0.540019 v 1.962154 h 0.361735 v -1.962154 h 0.5302 v -0.304891 z m 4.337203,0 v 2.267045 h 0.342615 v -2.267045 z m 0.688847,0 v 2.267045 h 0.343132 v -0.543119 l 0.193269,-0.234611 0.419096,0.77773 h 0.374654 l -0.580843,-1.051098 0.514181,-0.660425 -0.396875,0.0036 -0.517281,0.714169 h -0.0062 v -1.273308 z m -22.539193,0.07286 v 0.486275 h -0.235127 v 0.253732 h 0.235127 v 1.0604 c 0,0.34925 0.114458,0.412895 0.346232,0.412895 0.10795,0 0.202928,-0.0094 0.275953,-0.02842 v -0.254248 c -0.03175,0.0063 -0.07322,0.0093 -0.124024,0.0093 -0.117475,0 -0.155546,-0.04752 -0.155546,-0.180867 v -1.019059 h 0.27957 v -0.253732 h -0.27957 v -0.486275 z m 24.79642,0 v 0.486275 h -0.234611 v 0.253732 h 0.234611 v 1.0604 c 0,0.34925 0.114457,0.412895 0.346232,0.412895 0.10795,0 0.203444,-0.0094 0.276469,-0.02842 v -0.254248 c -0.03175,0.0063 -0.07322,0.0093 -0.124024,0.0093 -0.117475,0 -0.155546,-0.04752 -0.155546,-0.180867 v -1.019059 h 0.27957 v -0.253732 h -0.27957 v -0.486275 z m -18.827275,0.162264 c 0.13335,0 0.215491,0.07904 0.215491,0.21239 0,0.123825 -0.08547,0.216289 -0.164848,0.292489 l -0.07958,0.07286 -0.05064,-0.06666 c -0.0635,-0.08573 -0.133325,-0.199893 -0.133325,-0.314193 0,-0.149225 0.120832,-0.196887 0.212907,-0.196887 z m -16.95142,0.03824 h 0.2537313 c 0.2031998,0 0.3653523,0.05362 0.3653523,0.323494 0,0.212725 -0.1142382,0.359151 -0.3333129,0.359151 H 5.129241 Z m 6.159314,0.03152 h 0.0062 l 0.260449,1.117761 h -0.536401 z m -3.5558554,0.209807 c -0.4508495,0 -0.5999633,0.199773 -0.5999633,0.561722 h 0.3234944 c 0,-0.165099 0.031849,-0.327111 0.2604493,-0.327111 0.1809748,0 0.2351277,0.09867 0.2351277,0.254248 0,0.149224 -0.076163,0.184183 -0.1999878,0.219108 l -0.2666504,0.07286 c -0.2317747,0.0762 -0.396875,0.155402 -0.396875,0.536402 0,0.327024 0.1713676,0.479557 0.4444174,0.479557 0.2000248,0 0.3332221,-0.08236 0.425297,-0.250631 h 0.0062 c 0.00953,0.1651 0.1364714,0.22531 0.2888712,0.22531 0.066675,0 0.1271902,-0.02229 0.1684652,-0.04134 v -0.222208 c -0.0127,0.0063 -0.034619,0.0093 -0.056844,0.0093 -0.0508,0 -0.0894,-0.05691 -0.0894,-0.120407 v -0.977718 c 0,-0.301624 -0.2409779,-0.419095 -0.5426026,-0.419095 z m 1.4190349,0 c -0.3524247,0 -0.5839437,0.149064 -0.5839437,0.469738 0,0.27305 0.1076609,0.40306 0.3648356,0.49196 l 0.2795695,0.0987 c 0.1206499,0.04128 0.1870687,0.123631 0.1870687,0.250631 0,0.155574 -0.091728,0.25063 -0.2790527,0.25063 -0.1968498,0 -0.2666504,-0.107524 -0.2666504,-0.304374 v -0.05426 h -0.304891 v 0.06356 c 0,0.3302 0.1299233,0.5302 0.5617228,0.5302 0.3460747,0 0.6128825,-0.155774 0.6128825,-0.520898 0,-0.269875 -0.1175538,-0.406235 -0.3715535,-0.49196 l -0.2191081,-0.07596 c -0.1809748,-0.0635 -0.2413289,-0.117798 -0.2413289,-0.251148 0,-0.15875 0.1079046,-0.222208 0.2444295,-0.222208 0.1777998,0 0.225826,0.127024 0.225826,0.263549 v 0.04444 h 0.3234945 v -0.07596 c 0,-0.212725 -0.098326,-0.466638 -0.5333008,-0.466638 z m 9.2361285,0 c -0.1905,0 -0.352491,0.09203 -0.438216,0.244429 h -0.0093 v -0.199988 h -0.324011 v 1.707906 h 0.343132 V 12.34949 c 0,-0.22225 0.133151,-0.333313 0.272851,-0.333313 0.17145,0 0.238229,0.08574 0.238229,0.307992 v 1.171504 h 0.342614 v -1.28881 c 0,-0.346075 -0.164947,-0.463537 -0.425297,-0.463537 z m 1.273308,0 c -0.485775,0 -0.54312,0.504366 -0.54312,0.879016 0,0.466724 0.111031,0.860412 0.51108,0.860412 0.1651,0 0.324073,-0.08539 0.387573,-0.234611 h 0.0062 v 0.275952 c 0,0.19685 -0.111072,0.320911 -0.288872,0.320911 -0.1524,0 -0.24753,-0.09831 -0.24753,-0.203088 h -0.324011 c 0,0.139699 0.05734,0.437699 0.56534,0.437699 0.460375,0 0.638204,-0.250701 0.638204,-0.666626 v -1.625224 h -0.324011 v 0.20929 h -0.0062 c -0.03175,-0.123825 -0.17463,-0.253731 -0.374654,-0.253731 z m 6.403743,0 c -0.45085,0 -0.599963,0.199773 -0.599963,0.561722 h 0.324011 c 0,-0.165099 0.03185,-0.327111 0.260449,-0.327111 0.180975,0 0.234611,0.09867 0.234611,0.254248 0,0.149224 -0.07616,0.184183 -0.199988,0.219108 l -0.26665,0.07286 c -0.231775,0.0762 -0.396875,0.155402 -0.396875,0.536402 0,0.327024 0.171367,0.479557 0.444417,0.479557 0.200025,0 0.333222,-0.08236 0.425297,-0.250631 h 0.0067 c 0.0095,0.1651 0.136472,0.22531 0.288871,0.22531 0.06668,0 0.126674,-0.02229 0.167949,-0.04134 v -0.222208 c -0.0127,0.0063 -0.03462,0.0093 -0.05684,0.0093 -0.0508,0 -0.08888,-0.05691 -0.08888,-0.120407 v -0.977718 c 0,-0.301624 -0.241494,-0.419095 -0.543119,-0.419095 z m 2.343009,0 c -0.193674,0 -0.320675,0.120592 -0.396875,0.311092 h -0.0062 v -0.266651 h -0.342614 v 1.707906 h 0.342614 v -1.022159 c 0,-0.3175 0.187557,-0.387574 0.343132,-0.387574 0.05715,0 0.117227,0.01277 0.142627,0.01912 v -0.349333 c -0.02222,-0.0063 -0.04458,-0.0124 -0.08268,-0.0124 z m 7.165971,0 c -0.495299,0 -0.634586,0.367911 -0.634586,0.898136 0,0.530224 0.161512,0.898653 0.634586,0.898653 0.47625,0 0.638204,-0.368429 0.638204,-0.898653 0,-0.530225 -0.139729,-0.898136 -0.638204,-0.898136 z m 1.470195,0 c -0.4953,0 -0.635104,0.367911 -0.635104,0.898136 0,0.530224 0.162029,0.898653 0.635104,0.898653 0.476249,0 0.638204,-0.368429 0.638204,-0.898653 0,-0.530225 -0.13973,-0.898136 -0.638204,-0.898136 z m -30.5784955,0.04444 v 1.707906 H 6.808725 v -1.707906 z m 5.8042965,0 v 1.193726 c 0,0.441324 0.171298,0.558622 0.425297,0.558622 0.1905,0 0.352492,-0.09203 0.438217,-0.244429 h 0.0093 v 0.199987 h 0.324012 v -1.707906 h -0.343132 v 1.193726 c 0,0.1905 -0.133003,0.285771 -0.279053,0.285771 -0.14605,0 -0.232027,-0.06375 -0.232027,-0.254249 v -1.225248 z m 3.070097,0 v 1.707906 h 0.342615 v -1.707906 z m 1.5875,0 v 1.707906 h 0.342615 v -1.707906 z m 10.045382,0 v 1.707906 H 27.316 v -1.707906 z m 13.163538,0 v 1.707906 h 0.343131 v -1.707906 z m -4.562513,0.20929 c 0.250825,0 0.29559,0.26658 0.29559,0.644405 0,0.434974 -0.04476,0.644405 -0.29559,0.644405 -0.247649,0 -0.291972,-0.209431 -0.291972,-0.644405 0,-0.377825 0.04432,-0.644405 0.291972,-0.644405 z m 1.470195,0 c 0.250825,0 0.295072,0.26658 0.295072,0.644405 0,0.434974 -0.04425,0.644405 -0.295072,0.644405 -0.24765,0 -0.291972,-0.209431 -0.291972,-0.644405 0,-0.377825 0.04432,-0.644405 0.291972,-0.644405 z m -22.685437,0.01912 c 0.263525,0 0.311092,0.234831 0.311092,0.644405 0,0.365125 -0.05392,0.606682 -0.288871,0.606682 -0.238125,0 -0.288872,-0.244654 -0.288872,-0.632003 0,-0.460375 0.0698,-0.619084 0.266651,-0.619084 z m 5.391402,0 c 0.238125,0 0.272852,0.308161 0.272852,0.587561 0,0.269875 -0.02837,0.606165 -0.295073,0.606165 -0.254,0 -0.26665,-0.330085 -0.26665,-0.622185 0,-0.317499 0.04122,-0.571541 0.288871,-0.571541 z m 2.203483,0.412895 0.460437,0.647505 c -0.08573,0.09207 -0.200033,0.174667 -0.352433,0.174667 -0.20955,0 -0.384473,-0.159052 -0.384473,-0.362252 0,-0.168275 0.07963,-0.298301 0.209806,-0.403076 z m -16.824296,0.0093 h 0.3364136 c 0.2095497,0 0.3555338,0.139481 0.3555338,0.383955 0,0.26035 -0.1174132,0.400493 -0.333313,0.400493 H 5.129241 Z m 2.8225667,0.155546 v 0.28577 c 0,0.250825 -0.1016167,0.406177 -0.3079915,0.406177 -0.1428749,0 -0.2129069,-0.113957 -0.2129069,-0.256832 0,-0.127 0.041618,-0.228844 0.1400431,-0.276469 0.1015999,-0.04763 0.2919554,-0.0888 0.3808553,-0.158646 z m 18.3322143,0 v 0.28577 c 0,0.250825 -0.101617,0.406177 -0.307991,0.406177 -0.142875,0 -0.212391,-0.113957 -0.212391,-0.256832 0,-0.127 0.0411,-0.228844 0.139527,-0.276469 0.1016,-0.04763 0.291955,-0.0888 0.380855,-0.158646 z" />
  </g>
</svg>
