<?xml version="1.0" encoding="UTF-8" standalone="no"?>
<!-- Created with Inkscape (http://www.inkscape.org/) -->

<svg
   width="46.048828mm"
   height="17.317326mm"
   viewBox="0 0 46.048828 17.317326"
   version="1.1"
   id="svg1"
   sodipodi:docname="aequitas_logo.svg"
   inkscape:version="1.3.1 (9b9bdc1480, 2023-11-25, custom)"
   xmlns:inkscape="http://www.inkscape.org/namespaces/inkscape"
   xmlns:sodipodi="http://sodipodi.sourceforge.net/DTD/sodipodi-0.dtd"
   xmlns:xlink="http://www.w3.org/1999/xlink"
   xmlns="http://www.w3.org/2000/svg"
   xmlns:svg="http://www.w3.org/2000/svg">
  <sodipodi:namedview
     id="namedview1"
     pagecolor="#ffffff"
     bordercolor="#000000"
     borderopacity="0.25"
     inkscape:showpageshadow="2"
     inkscape:pageopacity="0.0"
     inkscape:pagecheckerboard="0"
     inkscape:deskcolor="#d1d1d1"
     inkscape:document-units="mm"
     inkscape:zoom="2.9077441"
     inkscape:cx="6.5342751"
     inkscape:cy="-3.7830014"
     inkscape:window-width="1920"
     inkscape:window-height="1016"
     inkscape:window-x="0"
     inkscape:window-y="0"
     inkscape:window-maximized="1"
     inkscape:current-layer="layer3" />
  <defs
     id="defs1">
    <linearGradient
       id="linearGradient3"
       inkscape:collect="always">
      <stop
         style="stop-color:#55cdfc;stop-opacity:0.49587622;"
         offset="0"
         id="stop3" />
      <stop
         style="stop-color:#f7a8b8;stop-opacity:0.5;"
         offset="1"
         id="stop4" />
    </linearGradient>
    <linearGradient
       inkscape:collect="always"
       xlink:href="#linearGradient3"
       id="linearGradient4"
       x1="55.702072"
       y1="54.877785"
       x2="101.6627"
       y2="54.877785"
       gradientUnits="userSpaceOnUse"
       gradientTransform="translate(-55.533595,-46.100927)" />
  </defs>
  <g
     inkscape:label="Layer 1"
     inkscape:groupmode="layer"
     id="layer1"
     transform="translate(-0.12437852,-0.11819564)">
    <rect
       style="mix-blend-mode:normal;fill:#f7f7f7;fill-opacity:0;stroke:url(#linearGradient4);stroke-width:0.352778;stroke-dasharray:none"
       id="rect3"
       width="45.696049"
       height="16.964548"
       x="0.30076751"
       y="0.29458463"
       ry="5.3710089" />
  </g>
  <g
     inkscape:groupmode="layer"
     id="layer2"
     inkscape:label="Layer 2"
     transform="translate(-0.12437852,-0.11819564)">
    <path
       id="text1"
       style="font-size:7.05556px;fill:#004d40;stroke-width:0.265;stroke-dasharray:none;fill-opacity:1"
       d="M 25.558485 3.6068716 L 25.558485 4.4393789 L 26.532069 4.4393789 L 26.532069 3.6068716 L 25.558485 3.6068716 z M 12.286944 3.6631989 L 10.953175 8.7011343 L 12.011508 8.7011343 L 12.244569 7.6355662 L 13.585056 7.6355662 L 13.8176 8.7011343 L 14.875933 8.7011343 L 13.542681 3.6631989 L 12.286944 3.6631989 z M 27.428138 3.818745 L 27.428138 4.9049836 L 26.934112 4.9049836 L 26.934112 5.568509 L 27.428138 5.568509 L 27.428138 7.7415029 C 27.428138 7.9343547 27.43976 8.0940603 27.463278 8.2210602 C 27.486797 8.3480602 27.529254 8.4516726 27.590402 8.5316356 C 27.656254 8.6068948 27.747728 8.6584427 27.865321 8.6866649 C 27.987617 8.7101834 28.142777 8.7223216 28.330926 8.7223216 C 28.443814 8.7223216 28.549958 8.7172596 28.648736 8.7078522 C 28.752217 8.7031485 28.857844 8.7011343 28.966029 8.7011343 L 28.966029 8.0236563 C 28.933103 8.02836 28.897722 8.0329052 28.860092 8.0376089 L 28.747438 8.0376089 C 28.606327 8.0376089 28.512321 8.0072897 28.465284 7.9461416 C 28.422951 7.8802898 28.401722 7.7721321 28.401722 7.6216136 L 28.401722 5.568509 L 28.966029 5.568509 L 28.966029 4.9049836 L 28.401722 4.9049836 L 28.401722 3.818745 L 27.428138 3.818745 z M 12.907578 4.5380809 L 12.92153 4.5380809 L 13.408839 6.8030589 L 12.420786 6.8030589 L 12.907578 4.5380809 z M 16.56937 4.8062816 C 16.24011 4.8062816 15.976792 4.8603604 15.779237 4.9685456 C 15.581681 5.0767307 15.429052 5.2228006 15.320867 5.406245 C 15.217386 5.5896893 15.146623 5.7989285 15.108994 6.0341136 C 15.076068 6.2692987 15.059384 6.513919 15.059384 6.7679189 C 15.059384 7.0078078 15.068991 7.2473661 15.087806 7.4872549 C 15.111325 7.7271437 15.169949 7.9434591 15.264023 8.1363109 C 15.358097 8.3291627 15.504167 8.4848397 15.701722 8.6024323 C 15.899278 8.7200248 16.174217 8.7786489 16.526995 8.7786489 C 16.992661 8.7786489 17.333818 8.663415 17.550188 8.4329336 C 17.766559 8.2024522 17.884323 7.8658409 17.903138 7.4236929 L 17.028256 7.4236929 C 17.000034 7.6635817 16.947969 7.8425017 16.87271 7.9600942 C 16.797451 8.0776868 16.677672 8.1363109 16.513042 8.1363109 C 16.423672 8.1363109 16.348364 8.1130679 16.287216 8.0660309 C 16.226068 8.0142902 16.176535 7.9485899 16.138905 7.868627 C 16.101275 7.7839603 16.073487 7.6894383 16.054672 7.5859569 C 16.040561 7.4777717 16.033485 7.3675998 16.033485 7.2547109 L 16.033485 6.9513703 L 17.959466 6.9513703 L 17.959466 6.7322622 C 17.959466 6.4406327 17.940768 6.1773147 17.903138 5.9421296 C 17.865509 5.7022408 17.794746 5.5000778 17.691265 5.3354482 C 17.587783 5.166115 17.444245 5.0367286 17.2608 4.9473582 C 17.08206 4.8532842 16.851592 4.8062816 16.56937 4.8062816 z M 19.539731 4.8062816 C 19.139916 4.8062816 18.846279 4.9639729 18.658131 5.2791209 C 18.469983 5.5895653 18.375461 6.0975036 18.375461 6.8030589 C 18.375461 7.5086142 18.469983 8.0140216 18.658131 8.3197622 C 18.846279 8.6255028 19.139916 8.7786489 19.539731 8.7786489 C 19.723175 8.7786489 19.878336 8.7457988 20.005336 8.6799469 C 20.137039 8.6093914 20.254804 8.4987027 20.358286 8.3481842 L 20.372238 8.3481842 L 20.372238 9.9217316 L 21.346339 9.9217316 L 21.346339 4.9049836 L 20.414613 4.9049836 L 20.414613 5.3070262 L 20.40066 5.3070262 C 20.292475 5.1282855 20.170165 5.0014301 20.033758 4.9261709 C 19.902054 4.846208 19.737286 4.8062816 19.539731 4.8062816 z M 30.631044 4.8062816 C 30.447599 4.8062816 30.273741 4.8275103 30.109112 4.8698436 C 29.949186 4.9074732 29.808178 4.9731735 29.685882 5.0672476 C 29.568289 5.1566179 29.474284 5.2769138 29.403728 5.4274323 C 29.333173 5.5732471 29.297792 5.7561955 29.297792 5.9772695 L 29.297792 6.0692536 L 30.172674 6.0692536 L 30.172674 5.9633169 C 30.172674 5.8127984 30.210069 5.6930193 30.285328 5.6036489 C 30.360587 5.5142786 30.473807 5.4692902 30.624326 5.4692902 C 30.788955 5.4692902 30.904189 5.5117476 30.970041 5.5964142 C 31.040596 5.6763772 31.075461 5.7895969 31.075461 5.9354116 C 31.075461 6.0624116 31.047673 6.1584311 30.991228 6.2242829 C 30.934784 6.2901347 30.833702 6.3421993 30.687888 6.3798289 L 30.137534 6.5276235 C 29.9682 6.5746606 29.822131 6.6287394 29.699834 6.6898875 C 29.582242 6.7510357 29.483691 6.8288742 29.403728 6.9229482 C 29.328469 7.0123186 29.271859 7.1230073 29.23423 7.2547109 C 29.1966 7.3817109 29.177902 7.5343402 29.177902 7.7130809 C 29.177902 7.8400808 29.194069 7.9694672 29.226995 8.1011709 C 29.259921 8.2281709 29.311985 8.3434048 29.382541 8.4468862 C 29.453096 8.5503677 29.547102 8.6327515 29.664694 8.6938996 C 29.782287 8.750344 29.925826 8.7786489 30.095159 8.7786489 C 30.330344 8.7786489 30.520886 8.750344 30.6667 8.6938996 C 30.817219 8.6327515 30.948619 8.5033651 31.061508 8.3058096 L 31.075461 8.3058096 C 31.089572 8.3716614 31.103724 8.4398927 31.117836 8.5104482 C 31.13665 8.5763001 31.162941 8.6399862 31.195867 8.7011343 L 32.127076 8.7011343 C 32.080039 8.5882454 32.047189 8.482102 32.028374 8.3833242 C 32.014263 8.2845465 32.007187 8.1460696 32.007187 7.9673289 L 32.007187 5.9705516 C 32.007187 5.8012183 31.987972 5.646058 31.950343 5.5049469 C 31.917417 5.3591322 31.851717 5.234291 31.752939 5.1308096 C 31.654161 5.0273281 31.515684 4.9474754 31.336944 4.8910309 C 31.158203 4.8345865 30.922673 4.8062816 30.631044 4.8062816 z M 33.96159 4.8062816 C 33.712293 4.8062816 33.497992 4.8371175 33.319252 4.8982656 C 33.145215 4.9594138 33.001676 5.0412808 32.888787 5.1447622 C 32.775898 5.2482437 32.693514 5.3705538 32.641774 5.5116649 C 32.590033 5.6480722 32.564259 5.7941421 32.564259 5.9493643 C 32.564259 6.2174753 32.63249 6.4383359 32.768898 6.6123729 C 32.905305 6.7817062 33.107468 6.9136236 33.375579 7.0076976 L 34.060292 7.2547109 C 34.154366 7.2923406 34.236749 7.3438884 34.307305 7.4097402 C 34.37786 7.4708884 34.412725 7.5628794 34.412725 7.6851756 C 34.412725 7.8356941 34.368253 7.948397 34.278883 8.0236563 C 34.189513 8.0989155 34.069733 8.1363109 33.919215 8.1363109 C 33.754585 8.1363109 33.627213 8.087294 33.537843 7.9885163 C 33.453176 7.8850348 33.411236 7.7505864 33.411236 7.5859569 L 33.411236 7.4593496 L 32.536354 7.4593496 L 32.536354 7.5931916 C 32.536354 7.776636 32.557582 7.9434177 32.599916 8.0939362 C 32.642249 8.239751 32.715025 8.3645921 32.818507 8.4680736 C 32.926692 8.571555 33.070231 8.6493936 33.248972 8.7011343 C 33.432416 8.752875 33.660353 8.7786489 33.933168 8.7786489 C 34.14013 8.7786489 34.328141 8.7574202 34.497474 8.7150869 C 34.671511 8.6727536 34.819595 8.6019913 34.941892 8.5032135 C 35.068891 8.4044358 35.167959 8.2821256 35.238514 8.1363109 C 35.30907 7.9857924 35.344451 7.8094034 35.344451 7.6071442 C 35.344451 7.3202184 35.280765 7.0948125 35.153765 6.9301829 C 35.026765 6.7608497 34.81045 6.624387 34.504709 6.5209056 L 33.919215 6.3229849 C 33.754585 6.2712441 33.641366 6.2080748 33.580218 6.1328156 C 33.523773 6.0575564 33.495985 5.9726416 33.495985 5.8785675 C 33.495985 5.7421602 33.540457 5.6410787 33.629827 5.5752269 C 33.723901 5.5046714 33.832059 5.4692902 33.954355 5.4692902 C 34.114281 5.4692902 34.224969 5.5162928 34.286118 5.6103669 C 34.351969 5.6997372 34.38482 5.8432761 34.38482 6.0408315 L 35.259702 6.0408315 L 35.259702 5.8858022 C 35.259702 5.542432 35.153558 5.276583 34.941892 5.0884349 C 34.730225 4.9002868 34.403738 4.8062816 33.96159 4.8062816 z M 21.995395 4.9049836 L 21.995395 7.7203156 C 21.995395 8.1013155 22.077779 8.3742407 22.242408 8.5388703 C 22.411742 8.6987962 22.6513 8.7786489 22.961744 8.7786489 C 23.173411 8.7786489 23.361421 8.7387225 23.526051 8.6587596 C 23.69068 8.5787967 23.825129 8.4443483 23.92861 8.2562002 L 23.942563 8.2562002 L 23.942563 8.7011343 L 24.873772 8.7011343 L 24.873772 4.9049836 L 23.900188 4.9049836 L 23.900188 7.4236929 C 23.900188 7.8423224 23.728344 8.0520783 23.384974 8.0520783 C 23.239159 8.0520783 23.133533 8.0141661 23.067681 7.9389069 C 23.001829 7.858944 22.968979 7.7204671 22.968979 7.5229116 L 22.968979 4.9049836 L 21.995395 4.9049836 z M 25.558485 4.9049836 L 25.558485 8.7011343 L 26.532069 8.7011343 L 26.532069 4.9049836 L 25.558485 4.9049836 z M 16.53423 5.4692902 C 16.633007 5.4692902 16.71286 5.4905189 16.774008 5.5328522 C 16.83986 5.5704818 16.889394 5.6296227 16.92232 5.7095856 C 16.959949 5.7848448 16.985723 5.8788501 16.999834 5.9917389 C 17.013945 6.0999241 17.023553 6.2267795 17.028256 6.3725942 L 16.033485 6.3725942 L 16.033485 6.2242829 C 16.033485 6.1349125 16.040561 6.0459693 16.054672 5.956599 C 16.073487 5.8672286 16.101275 5.7868591 16.138905 5.7163036 C 16.176535 5.6410443 16.226068 5.5824202 16.287216 5.5400869 C 16.353068 5.4930499 16.435452 5.4692902 16.53423 5.4692902 z M 19.857541 5.5540396 C 20.073911 5.5540396 20.212388 5.660183 20.273536 5.8718496 C 20.339388 6.0788125 20.372238 6.3891331 20.372238 6.8030589 C 20.372238 7.2169847 20.339388 7.5298363 20.273536 7.7415029 C 20.212388 7.9484658 20.073911 8.0520783 19.857541 8.0520783 C 19.645874 8.0520783 19.506881 7.9484658 19.441029 7.7415029 C 19.379881 7.5298363 19.349562 7.2169847 19.349562 6.8030589 C 19.349562 6.3891331 19.379881 6.0788125 19.441029 5.8718496 C 19.506881 5.660183 19.645874 5.5540396 19.857541 5.5540396 z M 31.075461 6.8030589 L 31.075461 7.5508169 C 31.075461 7.6542983 31.056763 7.7437583 31.019134 7.8190176 C 30.981504 7.8942768 30.932487 7.9554319 30.871339 8.0024689 C 30.814895 8.0495059 30.751208 8.0848871 30.680653 8.1084056 C 30.610097 8.1272204 30.541866 8.1363109 30.476014 8.1363109 C 30.344311 8.1363109 30.250305 8.084763 30.193861 7.9812816 C 30.137417 7.8778001 30.109112 7.752959 30.109112 7.6071442 C 30.109112 7.4378109 30.151569 7.3038793 30.236236 7.2051016 C 30.320902 7.1063238 30.46191 7.0360783 30.659466 6.993745 C 30.720614 6.9796339 30.788845 6.9584052 30.864104 6.9301829 C 30.939364 6.897257 31.009609 6.8547996 31.075461 6.8030589 z " />
  </g>
  <g
     inkscape:groupmode="layer"
     id="layer3"
     inkscape:label="Layer 3"
     transform="translate(-0.12437852,-0.11819564)">
    <path
       id="text3"
       style="font-style:normal;font-variant:normal;font-weight:normal;font-stretch:normal;font-size:3.175px;font-family:'Helvetica Neue';-inkscape-font-specification:'Helvetica Neue';fill:#00a69f;fill-opacity:1;stroke-width:0.264583"
       d="M 6.4655935 11.732474 L 6.4655935 12.075605 L 6.808725 12.075605 L 6.808725 11.732474 L 6.4655935 11.732474 z M 15.339987 11.732474 L 15.339987 12.075605 L 15.682602 12.075605 L 15.682602 11.732474 L 15.339987 11.732474 z M 16.927487 11.732474 L 16.927487 12.075605 L 17.270102 12.075605 L 17.270102 11.732474 L 16.927487 11.732474 z M 26.972869 11.732474 L 26.972869 12.075605 L 27.316 12.075605 L 27.316 11.732474 L 26.972869 11.732474 z M 40.136407 11.732474 L 40.136407 12.075605 L 40.479538 12.075605 L 40.479538 11.732474 L 40.136407 11.732474 z M 4.7669892 11.757795 L 4.7669892 14.02484 L 5.4847748 14.02484 C 5.9102244 14.02484 6.1834402 13.783581 6.1834402 13.405757 C 6.1834402 13.021582 6.0243964 12.872464 5.7767467 12.828014 L 5.7767467 12.821296 C 6.0021715 12.751446 6.1100597 12.58334 6.1100597 12.307116 C 6.1100597 11.907066 5.8373442 11.757795 5.5007945 11.757795 L 4.7669892 11.757795 z M 11.072547 11.757795 L 10.428142 14.02484 L 10.805897 14.02484 L 10.952141 13.469319 L 11.615667 13.469319 L 11.755193 14.02484 L 12.132948 14.02484 L 11.536085 11.757795 L 11.072547 11.757795 z M 14.65114 11.757795 L 14.65114 12.516922 L 14.644422 12.516922 C 14.580923 12.364522 14.441516 12.272493 14.257366 12.272493 C 13.997016 12.272493 13.730266 12.389584 13.730266 13.148408 C 13.730266 13.735782 13.888839 14.069282 14.288889 14.069282 C 14.533363 14.069282 14.619093 13.926159 14.663543 13.815034 L 14.669744 13.815034 L 14.669744 14.02484 L 14.993755 14.02484 L 14.993755 11.757795 L 14.65114 11.757795 z M 22.102882 11.757795 C 21.801257 11.757795 21.562863 11.919704 21.562863 12.243554 C 21.562863 12.364204 21.629733 12.491282 21.709108 12.615107 L 21.79489 12.742231 L 21.651747 12.850235 C 21.458072 12.996285 21.334453 13.196347 21.334453 13.443997 C 21.334453 13.682122 21.477205 14.069282 22.001079 14.069282 C 22.258254 14.069282 22.426571 13.964404 22.572621 13.831054 L 22.709046 14.02484 L 23.093002 14.02484 L 22.785011 13.592825 C 22.940586 13.373751 22.978797 13.097492 22.978797 12.976842 L 22.978797 12.94842 L 22.693027 12.94842 L 22.693027 12.992862 C 22.693027 13.113512 22.658118 13.250194 22.604143 13.339094 L 22.207268 12.780472 L 22.325091 12.694689 C 22.487015 12.574039 22.601043 12.427782 22.601043 12.218232 C 22.601043 11.840408 22.271157 11.757795 22.102882 11.757795 z M 24.039198 11.757795 L 24.039198 14.02484 L 24.40145 14.02484 L 24.40145 12.995963 L 25.1983 12.995963 L 25.1983 12.691588 L 24.40145 12.691588 L 24.40145 12.062686 L 25.248943 12.062686 L 25.248943 11.757795 L 24.039198 11.757795 z M 29.44662 11.757795 L 29.44662 14.02484 L 29.789234 14.02484 L 29.789234 12.138651 L 29.795436 12.138651 L 30.252772 14.02484 L 30.557663 14.02484 L 31.014999 12.138651 L 31.021201 12.138651 L 31.021201 14.02484 L 31.364332 14.02484 L 31.364332 11.757795 L 30.811394 11.757795 L 30.418137 13.437279 L 30.411419 13.437279 L 30.011443 11.757795 L 29.44662 11.757795 z M 31.697645 11.757795 L 31.697645 14.02484 L 32.935812 14.02484 L 32.935812 13.719949 L 32.05938 13.719949 L 32.05938 11.757795 L 31.697645 11.757795 z M 33.624659 11.757795 L 33.624659 12.062686 L 34.164678 12.062686 L 34.164678 14.02484 L 34.526413 14.02484 L 34.526413 12.062686 L 35.056613 12.062686 L 35.056613 11.757795 L 33.624659 11.757795 z M 37.961862 11.757795 L 37.961862 14.02484 L 38.304477 14.02484 L 38.304477 11.757795 L 37.961862 11.757795 z M 38.650709 11.757795 L 38.650709 14.02484 L 38.993841 14.02484 L 38.993841 13.481721 L 39.18711 13.24711 L 39.606206 14.02484 L 39.98086 14.02484 L 39.400017 12.973742 L 39.914198 12.313317 L 39.517323 12.316934 L 39.000042 13.031103 L 38.993841 13.031103 L 38.993841 11.757795 L 38.650709 11.757795 z M 16.111516 11.830659 L 16.111516 12.316934 L 15.876389 12.316934 L 15.876389 12.570666 L 16.111516 12.570666 L 16.111516 13.631066 C 16.111516 13.980316 16.225974 14.043961 16.457748 14.043961 C 16.565698 14.043961 16.660676 14.034589 16.733701 14.015539 L 16.733701 13.761291 C 16.701951 13.767641 16.660477 13.770592 16.609677 13.770592 C 16.492202 13.770592 16.454131 13.723075 16.454131 13.589725 L 16.454131 12.570666 L 16.733701 12.570666 L 16.733701 12.316934 L 16.454131 12.316934 L 16.454131 11.830659 L 16.111516 11.830659 z M 40.907936 11.830659 L 40.907936 12.316934 L 40.673325 12.316934 L 40.673325 12.570666 L 40.907936 12.570666 L 40.907936 13.631066 C 40.907936 13.980316 41.022393 14.043961 41.254168 14.043961 C 41.362118 14.043961 41.457612 14.034589 41.530637 14.015539 L 41.530637 13.761291 C 41.498887 13.767641 41.457413 13.770592 41.406613 13.770592 C 41.289138 13.770592 41.251067 13.723075 41.251067 13.589725 L 41.251067 12.570666 L 41.530637 12.570666 L 41.530637 12.316934 L 41.251067 12.316934 L 41.251067 11.830659 L 40.907936 11.830659 z M 22.080661 11.992923 C 22.214011 11.992923 22.296152 12.071963 22.296152 12.205313 C 22.296152 12.329138 22.210679 12.421602 22.131304 12.497802 L 22.051722 12.570666 L 22.001079 12.504003 C 21.937579 12.418278 21.867754 12.30411 21.867754 12.18981 C 21.867754 12.040585 21.988586 11.992923 22.080661 11.992923 z M 5.129241 12.031164 L 5.3829723 12.031164 C 5.5861721 12.031164 5.7483246 12.084783 5.7483246 12.354658 C 5.7483246 12.567383 5.6340864 12.713809 5.4150117 12.713809 L 5.129241 12.713809 L 5.129241 12.031164 z M 11.288555 12.062686 L 11.294756 12.062686 L 11.555205 13.180447 L 11.018804 13.180447 L 11.288555 12.062686 z M 7.7326996 12.272493 C 7.2818501 12.272493 7.1327363 12.472266 7.1327363 12.834215 L 7.4562307 12.834215 C 7.4562307 12.669116 7.4880802 12.507104 7.71668 12.507104 C 7.8976548 12.507104 7.9518077 12.605777 7.9518077 12.761352 C 7.9518077 12.910576 7.8756448 12.945535 7.7518199 12.98046 L 7.4851695 13.053323 C 7.2533948 13.129523 7.0882945 13.208725 7.0882945 13.589725 C 7.0882945 13.916749 7.2596621 14.069282 7.5327119 14.069282 C 7.7327367 14.069282 7.865934 13.986926 7.9580089 13.818651 L 7.9642101 13.818651 C 7.9737351 13.983751 8.1006815 14.043961 8.2530813 14.043961 C 8.3197563 14.043961 8.3802715 14.021669 8.4215465 14.002619 L 8.4215465 13.780411 C 8.4088465 13.786761 8.3869274 13.789713 8.3647024 13.789713 C 8.3139025 13.789713 8.2753022 13.732806 8.2753022 13.669306 L 8.2753022 12.691588 C 8.2753022 12.389964 8.0343243 12.272493 7.7326996 12.272493 z M 9.1517345 12.272493 C 8.7993098 12.272493 8.5677908 12.421557 8.5677908 12.742231 C 8.5677908 13.015281 8.6754517 13.145291 8.9326264 13.234191 L 9.2121959 13.332893 C 9.3328458 13.374168 9.3992646 13.456524 9.3992646 13.583524 C 9.3992646 13.739098 9.3075367 13.834154 9.1202119 13.834154 C 8.9233621 13.834154 8.8535615 13.72663 8.8535615 13.52978 L 8.8535615 13.47552 L 8.5486705 13.47552 L 8.5486705 13.539082 C 8.5486705 13.869282 8.6785938 14.069282 9.1103933 14.069282 C 9.456468 14.069282 9.7232758 13.913508 9.7232758 13.548384 C 9.7232758 13.278509 9.605722 13.142149 9.3517223 13.056424 L 9.1326142 12.98046 C 8.9516394 12.91696 8.8912853 12.862662 8.8912853 12.729312 C 8.8912853 12.570562 8.9991899 12.507104 9.1357148 12.507104 C 9.3135146 12.507104 9.3615408 12.634128 9.3615408 12.770653 L 9.3615408 12.815095 L 9.6850353 12.815095 L 9.6850353 12.739131 C 9.6850353 12.526406 9.586709 12.272493 9.1517345 12.272493 z M 18.387863 12.272493 C 18.197363 12.272493 18.035372 12.364522 17.949647 12.516922 L 17.940345 12.516922 L 17.940345 12.316934 L 17.616334 12.316934 L 17.616334 14.02484 L 17.959466 14.02484 L 17.959466 12.878657 C 17.959466 12.656407 18.092617 12.545344 18.232317 12.545344 C 18.403767 12.545344 18.470546 12.631086 18.470546 12.853336 L 18.470546 14.02484 L 18.81316 14.02484 L 18.81316 12.73603 C 18.81316 12.389955 18.648213 12.272493 18.387863 12.272493 z M 19.661171 12.272493 C 19.175396 12.272493 19.118051 12.776859 19.118051 13.151509 C 19.118051 13.618233 19.229082 14.011921 19.629131 14.011921 C 19.794231 14.011921 19.953204 13.926535 20.016704 13.77731 L 20.022906 13.77731 L 20.022906 14.053262 C 20.022906 14.250112 19.911834 14.374173 19.734034 14.374173 C 19.581634 14.374173 19.486504 14.27586 19.486504 14.171085 L 19.162493 14.171085 C 19.162493 14.310784 19.219834 14.608784 19.727833 14.608784 C 20.188208 14.608784 20.366037 14.358083 20.366037 13.942158 L 20.366037 12.316934 L 20.042026 12.316934 L 20.042026 12.526224 L 20.035825 12.526224 C 20.004075 12.402399 19.861195 12.272493 19.661171 12.272493 z M 26.064914 12.272493 C 25.614064 12.272493 25.464951 12.472266 25.464951 12.834215 L 25.788962 12.834215 C 25.788962 12.669116 25.820811 12.507104 26.049411 12.507104 C 26.230386 12.507104 26.284022 12.605777 26.284022 12.761352 C 26.284022 12.910576 26.207859 12.945535 26.084034 12.98046 L 25.817384 13.053323 C 25.585609 13.129523 25.420509 13.208725 25.420509 13.589725 C 25.420509 13.916749 25.591876 14.069282 25.864926 14.069282 C 26.064951 14.069282 26.198148 13.986926 26.290223 13.818651 L 26.296941 13.818651 C 26.306466 13.983751 26.433413 14.043961 26.585812 14.043961 C 26.652487 14.043961 26.712486 14.021669 26.753761 14.002619 L 26.753761 13.780411 C 26.741061 13.786761 26.719142 13.789713 26.696917 13.789713 C 26.646117 13.789713 26.608033 13.732806 26.608033 13.669306 L 26.608033 12.691588 C 26.608033 12.389964 26.366539 12.272493 26.064914 12.272493 z M 28.407923 12.272493 C 28.214249 12.272493 28.087248 12.393085 28.011048 12.583585 L 28.004847 12.583585 L 28.004847 12.316934 L 27.662233 12.316934 L 27.662233 14.02484 L 28.004847 14.02484 L 28.004847 13.002681 C 28.004847 12.685181 28.192404 12.615107 28.347979 12.615107 C 28.405129 12.615107 28.465206 12.627878 28.490606 12.634228 L 28.490606 12.284895 C 28.468381 12.278545 28.446023 12.272493 28.407923 12.272493 z M 35.573894 12.272493 C 35.078595 12.272493 34.939308 12.640404 34.939308 13.170629 C 34.939308 13.700853 35.10082 14.069282 35.573894 14.069282 C 36.050144 14.069282 36.212098 13.700853 36.212098 13.170629 C 36.212098 12.640404 36.072369 12.272493 35.573894 12.272493 z M 37.044089 12.272493 C 36.548789 12.272493 36.408985 12.640404 36.408985 13.170629 C 36.408985 13.700853 36.571014 14.069282 37.044089 14.069282 C 37.520338 14.069282 37.682293 13.700853 37.682293 13.170629 C 37.682293 12.640404 37.542563 12.272493 37.044089 12.272493 z M 6.4655935 12.316934 L 6.4655935 14.02484 L 6.808725 14.02484 L 6.808725 12.316934 L 6.4655935 12.316934 z M 12.26989 12.316934 L 12.26989 13.51066 C 12.26989 13.951984 12.441188 14.069282 12.695187 14.069282 C 12.885687 14.069282 13.047679 13.977252 13.133404 13.824853 L 13.142705 13.824853 L 13.142705 14.02484 L 13.466717 14.02484 L 13.466717 12.316934 L 13.123585 12.316934 L 13.123585 13.51066 C 13.123585 13.70116 12.990582 13.796431 12.844532 13.796431 C 12.698482 13.796431 12.612505 13.732682 12.612505 13.542182 L 12.612505 12.316934 L 12.26989 12.316934 z M 15.339987 12.316934 L 15.339987 14.02484 L 15.682602 14.02484 L 15.682602 12.316934 L 15.339987 12.316934 z M 16.927487 12.316934 L 16.927487 14.02484 L 17.270102 14.02484 L 17.270102 12.316934 L 16.927487 12.316934 z M 26.972869 12.316934 L 26.972869 14.02484 L 27.316 14.02484 L 27.316 12.316934 L 26.972869 12.316934 z M 40.136407 12.316934 L 40.136407 14.02484 L 40.479538 14.02484 L 40.479538 12.316934 L 40.136407 12.316934 z M 35.573894 12.526224 C 35.824719 12.526224 35.869484 12.792804 35.869484 13.170629 C 35.869484 13.605603 35.824719 13.815034 35.573894 13.815034 C 35.326245 13.815034 35.281922 13.605603 35.281922 13.170629 C 35.281922 12.792804 35.326245 12.526224 35.573894 12.526224 z M 37.044089 12.526224 C 37.294914 12.526224 37.339161 12.792804 37.339161 13.170629 C 37.339161 13.605603 37.294914 13.815034 37.044089 13.815034 C 36.796439 13.815034 36.752117 13.605603 36.752117 13.170629 C 36.752117 12.792804 36.796439 12.526224 37.044089 12.526224 z M 14.358652 12.545344 C 14.622177 12.545344 14.669744 12.780175 14.669744 13.189749 C 14.669744 13.554874 14.615822 13.796431 14.380873 13.796431 C 14.142748 13.796431 14.092001 13.551777 14.092001 13.164428 C 14.092001 12.704053 14.161802 12.545344 14.358652 12.545344 z M 19.750054 12.545344 C 19.988179 12.545344 20.022906 12.853505 20.022906 13.132905 C 20.022906 13.40278 19.994533 13.73907 19.727833 13.73907 C 19.473833 13.73907 19.461183 13.408985 19.461183 13.116885 C 19.461183 12.799386 19.502404 12.545344 19.750054 12.545344 z M 21.953537 12.958239 L 22.413974 13.605744 C 22.328249 13.697819 22.213941 13.780411 22.061541 13.780411 C 21.851991 13.780411 21.677068 13.621359 21.677068 13.418159 C 21.677068 13.249884 21.7567 13.119858 21.886874 13.015083 L 21.953537 12.958239 z M 5.129241 12.967541 L 5.4656546 12.967541 C 5.6752043 12.967541 5.8211884 13.107022 5.8211884 13.351496 C 5.8211884 13.611846 5.7037752 13.751989 5.4878754 13.751989 L 5.129241 13.751989 L 5.129241 12.967541 z M 7.9518077 13.123087 L 7.9518077 13.408857 C 7.9518077 13.659682 7.850191 13.815034 7.6438162 13.815034 C 7.5009413 13.815034 7.4309093 13.701077 7.4309093 13.558202 C 7.4309093 13.431202 7.4725275 13.329358 7.5709524 13.281733 C 7.6725523 13.234108 7.8629078 13.192937 7.9518077 13.123087 z M 26.284022 13.123087 L 26.284022 13.408857 C 26.284022 13.659682 26.182405 13.815034 25.976031 13.815034 C 25.833156 13.815034 25.76364 13.701077 25.76364 13.558202 C 25.76364 13.431202 25.804742 13.329358 25.903167 13.281733 C 26.004767 13.234108 26.195122 13.192937 26.284022 13.123087 z " />
  </g>
</svg>
