<?xml version="1.0" encoding="UTF-8" standalone="no"?>
<!-- Created with Inkscape (http://www.inkscape.org/) -->

<svg
   width="46.048828mm"
   height="17.317326mm"
   viewBox="0 0 46.048828 17.317326"
   version="1.1"
   id="svg1"
   sodipodi:docname="aequitas logo.svg"
   inkscape:version="1.3.1 (9b9bdc1480, 2023-11-25, custom)"
   xmlns:inkscape="http://www.inkscape.org/namespaces/inkscape"
   xmlns:sodipodi="http://sodipodi.sourceforge.net/DTD/sodipodi-0.dtd"
   xmlns:xlink="http://www.w3.org/1999/xlink"
   xmlns="http://www.w3.org/2000/svg"
   xmlns:svg="http://www.w3.org/2000/svg">
  <sodipodi:namedview
     id="namedview1"
     pagecolor="#ffffff"
     bordercolor="#000000"
     borderopacity="0.25"
     inkscape:showpageshadow="2"
     inkscape:pageopacity="0.0"
     inkscape:pagecheckerboard="0"
     inkscape:deskcolor="#d1d1d1"
     inkscape:document-units="mm"
     inkscape:zoom="5.8154882"
     inkscape:cx="74.6283"
     inkscape:cy="35.938513"
     inkscape:window-width="1920"
     inkscape:window-height="1016"
     inkscape:window-x="0"
     inkscape:window-y="0"
     inkscape:window-maximized="1"
     inkscape:current-layer="layer2" />
  <defs
     id="defs1">
    <linearGradient
       id="linearGradient3"
       inkscape:collect="always">
      <stop
         style="stop-color:#55cdfc;stop-opacity:0.49587622;"
         offset="0"
         id="stop3" />
      <stop
         style="stop-color:#f7a8b8;stop-opacity:0.5;"
         offset="1"
         id="stop4" />
    </linearGradient>
    <linearGradient
       inkscape:collect="always"
       xlink:href="#linearGradient3"
       id="linearGradient4"
       x1="55.702072"
       y1="54.877785"
       x2="101.6627"
       y2="54.877785"
       gradientUnits="userSpaceOnUse"
       gradientTransform="translate(-55.533595,-46.100927)" />
  </defs>
  <g
     inkscape:label="Layer 1"
     inkscape:groupmode="layer"
     id="layer1"
     transform="translate(-0.12437852,-0.11819564)">
    <rect
       style="mix-blend-mode:normal;fill:#f7f7f7;fill-opacity:0;stroke:url(#linearGradient4);stroke-width:0.352778;stroke-dasharray:none"
       id="rect3"
       width="45.696049"
       height="16.964548"
       x="0.30076751"
       y="0.29458463"
       ry="5.3710089" />
  </g>
  <g
     inkscape:groupmode="layer"
     id="layer2"
     inkscape:label="Layer 2"
     transform="translate(-0.12437852,-0.11819564)">
    <path
       id="text2"
       style="font-style:normal;font-variant:normal;font-weight:normal;font-stretch:normal;font-size:7.05556px;font-family:'Helvetica Neue';-inkscape-font-specification:'Helvetica Neue';letter-spacing:0px;word-spacing:0.264583px;fill:#004d40;fill-opacity:1;stroke-width:0.264999"
       inkscape:label="text2"
       d="M 17.830791 3.5743154 L 17.830791 4.4068228 L 18.804375 4.4068228 L 18.804375 3.5743154 L 17.830791 3.5743154 z M 4.5592499 3.6306427 L 3.2254812 8.6680614 L 4.2838146 8.6680614 L 4.5168753 7.6030101 L 5.8573619 7.6030101 L 6.0904226 8.6680614 L 7.148756 8.6680614 L 5.8149872 3.6306427 L 4.5592499 3.6306427 z M 30.089475 3.6306427 L 30.089475 8.6680614 L 31.105433 8.6680614 L 31.105433 6.4811147 L 32.79887 6.4811147 L 32.79887 5.6486074 L 31.105433 5.6486074 L 31.105433 4.4631501 L 32.904807 4.4631501 L 32.904807 3.6306427 L 30.089475 3.6306427 z M 33.363693 3.6306427 L 33.363693 8.6680614 L 34.337277 8.6680614 L 34.337277 3.6306427 L 33.363693 3.6306427 z M 19.700445 3.785672 L 19.700445 4.8724274 L 19.206418 4.8724274 L 19.206418 5.535436 L 19.700445 5.535436 L 19.700445 7.7089468 C 19.700445 7.9017986 19.712066 8.0615041 19.735585 8.1885041 C 19.759103 8.315504 19.80156 8.4191165 19.862709 8.4990794 C 19.92856 8.5743387 20.020035 8.6258865 20.137627 8.6541087 C 20.259923 8.6776272 20.415601 8.6892487 20.603749 8.6892487 C 20.716637 8.6892487 20.822264 8.6847035 20.921042 8.6752961 C 21.024523 8.6705924 21.13015 8.6680614 21.238335 8.6680614 L 21.238335 7.9911001 C 21.205409 7.9958038 21.170545 8.000349 21.132915 8.0050527 L 21.019744 8.0050527 C 20.878633 8.0050527 20.784628 7.9747336 20.737591 7.9135855 C 20.695257 7.8477336 20.674029 7.7395759 20.674029 7.5890575 L 20.674029 5.535436 L 21.238335 5.535436 L 21.238335 4.8724274 L 20.674029 4.8724274 L 20.674029 3.785672 L 19.700445 3.785672 z M 5.1798839 4.5055247 L 5.1943533 4.5055247 L 5.6811453 6.7705028 L 4.6930919 6.7705028 L 5.1798839 4.5055247 z M 8.8416759 4.7737254 C 8.5124167 4.7737254 8.2490987 4.8278043 8.0515432 4.9359894 C 7.8539877 5.0441746 7.7013584 5.1897277 7.5931733 5.373172 C 7.4896918 5.5566164 7.4189295 5.7663724 7.3812999 6.0015575 C 7.348374 6.2367426 7.3322073 6.4808461 7.3322073 6.734846 C 7.3322073 6.9747348 7.3412978 7.2148099 7.3601126 7.4546987 C 7.3836311 7.6945875 7.4427719 7.9109029 7.536846 8.1037547 C 7.63092 8.2966065 7.7764731 8.4517668 7.9740286 8.5693594 C 8.1715841 8.6869519 8.4470403 8.7460928 8.799818 8.7460928 C 9.2654845 8.7460928 9.6061243 8.6308588 9.8224946 8.4003774 C 10.038865 8.169896 10.15663 7.8332847 10.175445 7.3911367 L 9.3005626 7.3911367 C 9.2723404 7.6310255 9.2207925 7.8099455 9.1455333 7.9275381 C 9.0702741 8.0451306 8.9499781 8.1037547 8.7853486 8.1037547 C 8.6959782 8.1037547 8.6206707 8.0805118 8.5595226 8.0334748 C 8.4983744 7.9817341 8.4493576 7.915517 8.411728 7.835554 C 8.3740984 7.7508874 8.3457934 7.6568822 8.3269786 7.5534007 C 8.3128675 7.4452156 8.3057913 7.3350436 8.3057913 7.2221548 L 8.3057913 6.9182974 L 10.231772 6.9182974 L 10.231772 6.6997061 C 10.231772 6.4080765 10.213074 6.1447585 10.175445 5.9095734 C 10.137815 5.6696846 10.067053 5.4675217 9.9635712 5.3028921 C 9.8600898 5.1335588 9.7165509 5.0041724 9.5331065 4.9148021 C 9.3543659 4.820728 9.123898 4.7737254 8.8416759 4.7737254 z M 11.812554 4.7737254 C 11.412739 4.7737254 11.118585 4.9314167 10.930437 5.2465648 C 10.742289 5.5570091 10.648284 6.0649475 10.648284 6.7705028 C 10.648284 7.4760581 10.742289 7.9814654 10.930437 8.2872061 C 11.118585 8.5929467 11.412739 8.7460928 11.812554 8.7460928 C 11.995998 8.7460928 12.151159 8.7132426 12.278159 8.6473908 C 12.409862 8.5768353 12.52711 8.4661466 12.630592 8.3156281 L 12.645061 8.3156281 L 12.645061 9.8891755 L 13.618645 9.8891755 L 13.618645 4.8724274 L 12.687436 4.8724274 L 12.687436 5.2744701 L 12.672967 5.2744701 C 12.564781 5.0957294 12.442471 4.968874 12.306064 4.8936147 C 12.17436 4.8136518 12.010109 4.7737254 11.812554 4.7737254 z M 22.903867 4.7737254 C 22.720422 4.7737254 22.546047 4.7949541 22.381418 4.8372874 C 22.221492 4.8749171 22.080484 4.9406174 21.958188 5.0346914 C 21.840595 5.1240617 21.74659 5.2438409 21.676035 5.3943594 C 21.605479 5.5401741 21.570098 5.7236394 21.570098 5.9447134 L 21.570098 6.0366974 L 22.44498 6.0366974 L 22.44498 5.9307607 C 22.44498 5.7802423 22.482375 5.6604631 22.557635 5.5710928 C 22.632894 5.4817224 22.746113 5.4367341 22.896632 5.4367341 C 23.061262 5.4367341 23.176495 5.4791914 23.242347 5.5638581 C 23.312903 5.643821 23.348284 5.7565239 23.348284 5.9023387 C 23.348284 6.0293387 23.319979 6.1258749 23.263535 6.1917267 C 23.20709 6.2575786 23.106009 6.3096432 22.960194 6.3472728 L 22.40984 6.4950674 C 22.240507 6.5421044 22.094437 6.5961833 21.972141 6.6573314 C 21.854548 6.7184795 21.755998 6.7963181 21.676035 6.8903921 C 21.600775 6.9797624 21.544166 7.0904511 21.506536 7.2221548 C 21.468906 7.3491547 21.450209 7.5017841 21.450209 7.6805247 C 21.450209 7.8075247 21.466375 7.9369111 21.499301 8.0686147 C 21.532227 8.1956147 21.584292 8.3108486 21.654847 8.4143301 C 21.725403 8.5178115 21.819408 8.6001953 21.937001 8.6613434 C 22.054593 8.7177879 22.198132 8.7460928 22.367465 8.7460928 C 22.60265 8.7460928 22.793192 8.7177879 22.939007 8.6613434 C 23.089525 8.6001953 23.220926 8.4708089 23.333815 8.2732534 L 23.348284 8.2732534 C 23.362395 8.3391052 23.376548 8.4073366 23.390659 8.4778921 C 23.409473 8.5437439 23.435247 8.6069132 23.468173 8.6680614 L 24.399383 8.6680614 C 24.352346 8.5551725 24.319495 8.4495458 24.300681 8.3507681 C 24.286569 8.2519903 24.279493 8.1135135 24.279493 7.9347728 L 24.279493 5.9379954 C 24.279493 5.7686622 24.260796 5.6135019 24.223166 5.4723908 C 24.19024 5.326576 24.124023 5.2017349 24.025245 5.0982534 C 23.926467 4.994772 23.787991 4.9149192 23.60925 4.8584748 C 23.430509 4.8020303 23.195496 4.7737254 22.903867 4.7737254 z M 26.233896 4.7737254 C 25.9846 4.7737254 25.770299 4.8040446 25.591558 4.8651927 C 25.417521 4.9263408 25.274499 5.0087246 25.16161 5.1122061 C 25.048721 5.2156875 24.966337 5.3379977 24.914597 5.4791087 C 24.862856 5.6155161 24.837082 5.7615859 24.837082 5.9168081 C 24.837082 6.1849191 24.904797 6.4057798 25.041204 6.5798167 C 25.177611 6.74915 25.380291 6.8810674 25.648402 6.9751414 L 26.332598 7.2221548 C 26.426672 7.2597844 26.509056 7.3113323 26.579611 7.3771841 C 26.650167 7.4383322 26.685548 7.5298065 26.685548 7.6521027 C 26.685548 7.8026212 26.64056 7.9158409 26.551189 7.9911001 C 26.461819 8.0663593 26.34204 8.1037547 26.191521 8.1037547 C 26.026892 8.1037547 25.900036 8.0542211 25.810666 7.9554434 C 25.725999 7.8519619 25.683542 7.7180303 25.683542 7.5534007 L 25.683542 7.4262767 L 24.80866 7.4262767 L 24.80866 7.5606354 C 24.80866 7.7440798 24.829889 7.9108616 24.872222 8.06138 C 24.914555 8.2071948 24.987332 8.332036 25.090813 8.4355174 C 25.198998 8.5389989 25.342537 8.6163206 25.521278 8.6680614 C 25.704722 8.7198021 25.932659 8.7460928 26.205474 8.7460928 C 26.412437 8.7460928 26.600964 8.7248641 26.770297 8.6825308 C 26.944334 8.6401974 27.092418 8.5694351 27.214715 8.4706574 C 27.341715 8.3718796 27.440265 8.2495695 27.510821 8.1037547 C 27.581376 7.9532363 27.616757 7.7768472 27.616757 7.5745881 C 27.616757 7.2876622 27.553071 7.0617396 27.426071 6.89711 C 27.299071 6.7277768 27.082756 6.5918309 26.777015 6.4883494 L 26.191521 6.2904287 C 26.026892 6.238688 25.914189 6.1755187 25.853041 6.1002594 C 25.796596 6.0250002 25.768291 5.9400854 25.768291 5.8460114 C 25.768291 5.709604 25.812763 5.6085226 25.902133 5.5426707 C 25.996207 5.4721152 26.104365 5.4367341 26.226661 5.4367341 C 26.386587 5.4367341 26.497276 5.4837367 26.558424 5.5778107 C 26.624276 5.6671811 26.657126 5.8107199 26.657126 6.0082754 L 27.532008 6.0082754 L 27.532008 5.8532461 C 27.532008 5.5098758 27.426381 5.2440268 27.214715 5.0558787 C 27.003048 4.8677307 26.676044 4.7737254 26.233896 4.7737254 z M 36.390382 4.7737254 C 36.112864 4.7737254 35.877334 4.818197 35.684482 4.9075674 C 35.496334 4.992234 35.343704 5.1196062 35.226112 5.2889395 C 35.108519 5.453569 35.023605 5.6602772 34.971864 5.9095734 C 34.920123 6.1588696 34.894349 6.4459473 34.894349 6.7705028 C 34.894349 7.0997619 34.918109 7.3913849 34.965146 7.6453848 C 35.012183 7.894681 35.092036 8.1039201 35.204925 8.2732534 C 35.317813 8.437883 35.47096 8.5601932 35.663811 8.6401561 C 35.856663 8.7154153 36.098752 8.7507965 36.390382 8.7460928 C 36.6679 8.7460928 36.900382 8.7061664 37.088531 8.6262035 C 37.281382 8.5462405 37.437059 8.4239304 37.554652 8.2593008 C 37.672245 8.0899675 37.756643 7.8802116 37.808383 7.6309154 C 37.860124 7.3816192 37.885898 7.0950582 37.885898 6.7705028 C 37.885898 6.4365399 37.862655 6.144917 37.815618 5.8956208 C 37.768581 5.6463246 37.688728 5.4370854 37.575839 5.2677521 C 37.46295 5.0984188 37.309804 4.9735777 37.116953 4.8936147 C 36.924101 4.8089481 36.682011 4.7690217 36.390382 4.7737254 z M 14.267701 4.8724274 L 14.267701 7.6877594 C 14.267701 8.0687593 14.350085 8.3411678 14.514715 8.5057974 C 14.684048 8.6657232 14.923606 8.7460928 15.234051 8.7460928 C 15.445717 8.7460928 15.634244 8.7061664 15.798874 8.6262035 C 15.963504 8.5462405 16.097435 8.4117921 16.200917 8.223644 L 16.214869 8.223644 L 16.214869 8.6680614 L 17.146079 8.6680614 L 17.146079 4.8724274 L 16.172495 4.8724274 L 16.172495 7.3911367 C 16.172495 7.8097662 16.001168 8.0190054 15.657797 8.0190054 C 15.511983 8.0190054 15.405839 7.98161 15.339987 7.9063508 C 15.274135 7.8263878 15.241285 7.6873942 15.241285 7.4898387 L 15.241285 4.8724274 L 14.267701 4.8724274 z M 17.830791 4.8724274 L 17.830791 8.6680614 L 18.804375 8.6680614 L 18.804375 4.8724274 L 17.830791 4.8724274 z M 38.203708 4.8724274 L 39.028981 8.6680614 L 40.158111 8.6680614 L 40.630433 5.9731354 L 40.644903 5.9731354 L 41.145647 8.6680614 L 42.25359 8.6680614 L 43.072145 4.8724274 L 42.140419 4.8724274 L 41.682049 7.5678701 L 41.667579 7.5678701 L 41.166835 4.8724274 L 40.108501 4.8724274 L 39.635662 7.5678701 L 39.621709 7.5678701 L 39.177292 4.8724274 L 38.203708 4.8724274 z M 8.8065359 5.4367341 C 8.9053137 5.4367341 8.9851664 5.4579627 9.0463146 5.5002961 C 9.1121664 5.5379257 9.1617 5.5965498 9.1946259 5.6765127 C 9.2322555 5.7517719 9.2580295 5.8462939 9.2721406 5.9591828 C 9.2862517 6.0673679 9.2958589 6.1942233 9.3005626 6.3400381 L 8.3057913 6.3400381 L 8.3057913 6.1917267 C 8.3057913 6.1023564 8.3128675 6.0128964 8.3269786 5.923526 C 8.3457934 5.8341557 8.3740984 5.7543029 8.411728 5.6837474 C 8.4493576 5.6084882 8.4983744 5.5498641 8.5595226 5.5075308 C 8.6253744 5.4604937 8.7077582 5.4367341 8.8065359 5.4367341 z M 36.390382 5.4367341 C 36.587937 5.4367341 36.7244 5.5403465 36.799659 5.7473094 C 36.874919 5.9542723 36.912314 6.2954289 36.912314 6.7705028 C 36.912314 7.2455767 36.874919 7.5862165 36.799659 7.7931794 C 36.7244 8.0001423 36.587937 8.1037547 36.390382 8.1037547 C 36.272789 8.1037547 36.178784 8.0709046 36.108229 8.0050527 C 36.037673 7.9392009 35.983594 7.8477267 35.945965 7.7301341 C 35.913039 7.6125416 35.89181 7.4710169 35.882403 7.3063874 C 35.872995 7.1417578 35.867933 6.9633546 35.867933 6.7705028 C 35.867933 6.577651 35.872995 6.398731 35.882403 6.2341014 C 35.89181 6.0694718 35.913039 5.928464 35.945965 5.8108714 C 35.983594 5.6932789 36.037673 5.6012879 36.108229 5.535436 C 36.178784 5.4695842 36.272789 5.4367341 36.390382 5.4367341 z M 12.129847 5.5214834 C 12.346218 5.5214834 12.484694 5.6271101 12.545843 5.8387767 C 12.611694 6.0457396 12.645061 6.356577 12.645061 6.7705028 C 12.645061 7.1844285 12.611694 7.4972802 12.545843 7.7089468 C 12.484694 7.9159097 12.346218 8.0190054 12.129847 8.0190054 C 11.918181 8.0190054 11.779187 7.9159097 11.713335 7.7089468 C 11.652187 7.4972802 11.621868 7.1844285 11.621868 6.7705028 C 11.621868 6.356577 11.652187 6.0457396 11.713335 5.8387767 C 11.779187 5.6271101 11.918181 5.5214834 12.129847 5.5214834 z M 23.348284 6.7705028 L 23.348284 7.5182607 C 23.348284 7.6217422 23.329069 7.7112022 23.29144 7.7864614 C 23.25381 7.8617207 23.204793 7.9228757 23.143645 7.9699128 C 23.087201 8.0169498 23.023515 8.0523309 22.952959 8.0758494 C 22.882404 8.0946643 22.814172 8.1037547 22.748321 8.1037547 C 22.616617 8.1037547 22.522612 8.0522069 22.466167 7.9487254 C 22.409723 7.845244 22.381418 7.7204028 22.381418 7.5745881 C 22.381418 7.4052548 22.423875 7.2713232 22.508542 7.1725454 C 22.593209 7.0737677 22.734216 7.0030054 22.931772 6.960672 C 22.99292 6.9465609 23.061151 6.9253322 23.136411 6.89711 C 23.21167 6.8641841 23.282432 6.8222435 23.348284 6.7705028 z " />
  </g>
  <g
     inkscape:groupmode="layer"
     id="layer3"
     inkscape:label="Layer 3"
     transform="translate(-0.12437852,-0.11819564)">
    <path
       id="text3"
       style="font-style:normal;font-variant:normal;font-weight:normal;font-stretch:normal;font-size:3.175px;font-family:'Helvetica Neue';-inkscape-font-specification:'Helvetica Neue';fill:#00a69f;fill-opacity:1;stroke-width:0.264583"
       d="M 6.4655935 11.732474 L 6.4655935 12.075605 L 6.808725 12.075605 L 6.808725 11.732474 L 6.4655935 11.732474 z M 15.339987 11.732474 L 15.339987 12.075605 L 15.682602 12.075605 L 15.682602 11.732474 L 15.339987 11.732474 z M 16.927487 11.732474 L 16.927487 12.075605 L 17.270102 12.075605 L 17.270102 11.732474 L 16.927487 11.732474 z M 26.972869 11.732474 L 26.972869 12.075605 L 27.316 12.075605 L 27.316 11.732474 L 26.972869 11.732474 z M 40.136407 11.732474 L 40.136407 12.075605 L 40.479538 12.075605 L 40.479538 11.732474 L 40.136407 11.732474 z M 4.7669892 11.757795 L 4.7669892 14.02484 L 5.4847748 14.02484 C 5.9102244 14.02484 6.1834402 13.783581 6.1834402 13.405757 C 6.1834402 13.021582 6.0243964 12.872464 5.7767467 12.828014 L 5.7767467 12.821296 C 6.0021715 12.751446 6.1100597 12.58334 6.1100597 12.307116 C 6.1100597 11.907066 5.8373442 11.757795 5.5007945 11.757795 L 4.7669892 11.757795 z M 11.072547 11.757795 L 10.428142 14.02484 L 10.805897 14.02484 L 10.952141 13.469319 L 11.615667 13.469319 L 11.755193 14.02484 L 12.132948 14.02484 L 11.536085 11.757795 L 11.072547 11.757795 z M 14.65114 11.757795 L 14.65114 12.516922 L 14.644422 12.516922 C 14.580923 12.364522 14.441516 12.272493 14.257366 12.272493 C 13.997016 12.272493 13.730266 12.389584 13.730266 13.148408 C 13.730266 13.735782 13.888839 14.069282 14.288889 14.069282 C 14.533363 14.069282 14.619093 13.926159 14.663543 13.815034 L 14.669744 13.815034 L 14.669744 14.02484 L 14.993755 14.02484 L 14.993755 11.757795 L 14.65114 11.757795 z M 22.102882 11.757795 C 21.801257 11.757795 21.562863 11.919704 21.562863 12.243554 C 21.562863 12.364204 21.629733 12.491282 21.709108 12.615107 L 21.79489 12.742231 L 21.651747 12.850235 C 21.458072 12.996285 21.334453 13.196347 21.334453 13.443997 C 21.334453 13.682122 21.477205 14.069282 22.001079 14.069282 C 22.258254 14.069282 22.426571 13.964404 22.572621 13.831054 L 22.709046 14.02484 L 23.093002 14.02484 L 22.785011 13.592825 C 22.940586 13.373751 22.978797 13.097492 22.978797 12.976842 L 22.978797 12.94842 L 22.693027 12.94842 L 22.693027 12.992862 C 22.693027 13.113512 22.658118 13.250194 22.604143 13.339094 L 22.207268 12.780472 L 22.325091 12.694689 C 22.487015 12.574039 22.601043 12.427782 22.601043 12.218232 C 22.601043 11.840408 22.271157 11.757795 22.102882 11.757795 z M 24.039198 11.757795 L 24.039198 14.02484 L 24.40145 14.02484 L 24.40145 12.995963 L 25.1983 12.995963 L 25.1983 12.691588 L 24.40145 12.691588 L 24.40145 12.062686 L 25.248943 12.062686 L 25.248943 11.757795 L 24.039198 11.757795 z M 29.44662 11.757795 L 29.44662 14.02484 L 29.789234 14.02484 L 29.789234 12.138651 L 29.795436 12.138651 L 30.252772 14.02484 L 30.557663 14.02484 L 31.014999 12.138651 L 31.021201 12.138651 L 31.021201 14.02484 L 31.364332 14.02484 L 31.364332 11.757795 L 30.811394 11.757795 L 30.418137 13.437279 L 30.411419 13.437279 L 30.011443 11.757795 L 29.44662 11.757795 z M 31.697645 11.757795 L 31.697645 14.02484 L 32.935812 14.02484 L 32.935812 13.719949 L 32.05938 13.719949 L 32.05938 11.757795 L 31.697645 11.757795 z M 33.624659 11.757795 L 33.624659 12.062686 L 34.164678 12.062686 L 34.164678 14.02484 L 34.526413 14.02484 L 34.526413 12.062686 L 35.056613 12.062686 L 35.056613 11.757795 L 33.624659 11.757795 z M 37.961862 11.757795 L 37.961862 14.02484 L 38.304477 14.02484 L 38.304477 11.757795 L 37.961862 11.757795 z M 38.650709 11.757795 L 38.650709 14.02484 L 38.993841 14.02484 L 38.993841 13.481721 L 39.18711 13.24711 L 39.606206 14.02484 L 39.98086 14.02484 L 39.400017 12.973742 L 39.914198 12.313317 L 39.517323 12.316934 L 39.000042 13.031103 L 38.993841 13.031103 L 38.993841 11.757795 L 38.650709 11.757795 z M 16.111516 11.830659 L 16.111516 12.316934 L 15.876389 12.316934 L 15.876389 12.570666 L 16.111516 12.570666 L 16.111516 13.631066 C 16.111516 13.980316 16.225974 14.043961 16.457748 14.043961 C 16.565698 14.043961 16.660676 14.034589 16.733701 14.015539 L 16.733701 13.761291 C 16.701951 13.767641 16.660477 13.770592 16.609677 13.770592 C 16.492202 13.770592 16.454131 13.723075 16.454131 13.589725 L 16.454131 12.570666 L 16.733701 12.570666 L 16.733701 12.316934 L 16.454131 12.316934 L 16.454131 11.830659 L 16.111516 11.830659 z M 40.907936 11.830659 L 40.907936 12.316934 L 40.673325 12.316934 L 40.673325 12.570666 L 40.907936 12.570666 L 40.907936 13.631066 C 40.907936 13.980316 41.022393 14.043961 41.254168 14.043961 C 41.362118 14.043961 41.457612 14.034589 41.530637 14.015539 L 41.530637 13.761291 C 41.498887 13.767641 41.457413 13.770592 41.406613 13.770592 C 41.289138 13.770592 41.251067 13.723075 41.251067 13.589725 L 41.251067 12.570666 L 41.530637 12.570666 L 41.530637 12.316934 L 41.251067 12.316934 L 41.251067 11.830659 L 40.907936 11.830659 z M 22.080661 11.992923 C 22.214011 11.992923 22.296152 12.071963 22.296152 12.205313 C 22.296152 12.329138 22.210679 12.421602 22.131304 12.497802 L 22.051722 12.570666 L 22.001079 12.504003 C 21.937579 12.418278 21.867754 12.30411 21.867754 12.18981 C 21.867754 12.040585 21.988586 11.992923 22.080661 11.992923 z M 5.129241 12.031164 L 5.3829723 12.031164 C 5.5861721 12.031164 5.7483246 12.084783 5.7483246 12.354658 C 5.7483246 12.567383 5.6340864 12.713809 5.4150117 12.713809 L 5.129241 12.713809 L 5.129241 12.031164 z M 11.288555 12.062686 L 11.294756 12.062686 L 11.555205 13.180447 L 11.018804 13.180447 L 11.288555 12.062686 z M 7.7326996 12.272493 C 7.2818501 12.272493 7.1327363 12.472266 7.1327363 12.834215 L 7.4562307 12.834215 C 7.4562307 12.669116 7.4880802 12.507104 7.71668 12.507104 C 7.8976548 12.507104 7.9518077 12.605777 7.9518077 12.761352 C 7.9518077 12.910576 7.8756448 12.945535 7.7518199 12.98046 L 7.4851695 13.053323 C 7.2533948 13.129523 7.0882945 13.208725 7.0882945 13.589725 C 7.0882945 13.916749 7.2596621 14.069282 7.5327119 14.069282 C 7.7327367 14.069282 7.865934 13.986926 7.9580089 13.818651 L 7.9642101 13.818651 C 7.9737351 13.983751 8.1006815 14.043961 8.2530813 14.043961 C 8.3197563 14.043961 8.3802715 14.021669 8.4215465 14.002619 L 8.4215465 13.780411 C 8.4088465 13.786761 8.3869274 13.789713 8.3647024 13.789713 C 8.3139025 13.789713 8.2753022 13.732806 8.2753022 13.669306 L 8.2753022 12.691588 C 8.2753022 12.389964 8.0343243 12.272493 7.7326996 12.272493 z M 9.1517345 12.272493 C 8.7993098 12.272493 8.5677908 12.421557 8.5677908 12.742231 C 8.5677908 13.015281 8.6754517 13.145291 8.9326264 13.234191 L 9.2121959 13.332893 C 9.3328458 13.374168 9.3992646 13.456524 9.3992646 13.583524 C 9.3992646 13.739098 9.3075367 13.834154 9.1202119 13.834154 C 8.9233621 13.834154 8.8535615 13.72663 8.8535615 13.52978 L 8.8535615 13.47552 L 8.5486705 13.47552 L 8.5486705 13.539082 C 8.5486705 13.869282 8.6785938 14.069282 9.1103933 14.069282 C 9.456468 14.069282 9.7232758 13.913508 9.7232758 13.548384 C 9.7232758 13.278509 9.605722 13.142149 9.3517223 13.056424 L 9.1326142 12.98046 C 8.9516394 12.91696 8.8912853 12.862662 8.8912853 12.729312 C 8.8912853 12.570562 8.9991899 12.507104 9.1357148 12.507104 C 9.3135146 12.507104 9.3615408 12.634128 9.3615408 12.770653 L 9.3615408 12.815095 L 9.6850353 12.815095 L 9.6850353 12.739131 C 9.6850353 12.526406 9.586709 12.272493 9.1517345 12.272493 z M 18.387863 12.272493 C 18.197363 12.272493 18.035372 12.364522 17.949647 12.516922 L 17.940345 12.516922 L 17.940345 12.316934 L 17.616334 12.316934 L 17.616334 14.02484 L 17.959466 14.02484 L 17.959466 12.878657 C 17.959466 12.656407 18.092617 12.545344 18.232317 12.545344 C 18.403767 12.545344 18.470546 12.631086 18.470546 12.853336 L 18.470546 14.02484 L 18.81316 14.02484 L 18.81316 12.73603 C 18.81316 12.389955 18.648213 12.272493 18.387863 12.272493 z M 19.661171 12.272493 C 19.175396 12.272493 19.118051 12.776859 19.118051 13.151509 C 19.118051 13.618233 19.229082 14.011921 19.629131 14.011921 C 19.794231 14.011921 19.953204 13.926535 20.016704 13.77731 L 20.022906 13.77731 L 20.022906 14.053262 C 20.022906 14.250112 19.911834 14.374173 19.734034 14.374173 C 19.581634 14.374173 19.486504 14.27586 19.486504 14.171085 L 19.162493 14.171085 C 19.162493 14.310784 19.219834 14.608784 19.727833 14.608784 C 20.188208 14.608784 20.366037 14.358083 20.366037 13.942158 L 20.366037 12.316934 L 20.042026 12.316934 L 20.042026 12.526224 L 20.035825 12.526224 C 20.004075 12.402399 19.861195 12.272493 19.661171 12.272493 z M 26.064914 12.272493 C 25.614064 12.272493 25.464951 12.472266 25.464951 12.834215 L 25.788962 12.834215 C 25.788962 12.669116 25.820811 12.507104 26.049411 12.507104 C 26.230386 12.507104 26.284022 12.605777 26.284022 12.761352 C 26.284022 12.910576 26.207859 12.945535 26.084034 12.98046 L 25.817384 13.053323 C 25.585609 13.129523 25.420509 13.208725 25.420509 13.589725 C 25.420509 13.916749 25.591876 14.069282 25.864926 14.069282 C 26.064951 14.069282 26.198148 13.986926 26.290223 13.818651 L 26.296941 13.818651 C 26.306466 13.983751 26.433413 14.043961 26.585812 14.043961 C 26.652487 14.043961 26.712486 14.021669 26.753761 14.002619 L 26.753761 13.780411 C 26.741061 13.786761 26.719142 13.789713 26.696917 13.789713 C 26.646117 13.789713 26.608033 13.732806 26.608033 13.669306 L 26.608033 12.691588 C 26.608033 12.389964 26.366539 12.272493 26.064914 12.272493 z M 28.407923 12.272493 C 28.214249 12.272493 28.087248 12.393085 28.011048 12.583585 L 28.004847 12.583585 L 28.004847 12.316934 L 27.662233 12.316934 L 27.662233 14.02484 L 28.004847 14.02484 L 28.004847 13.002681 C 28.004847 12.685181 28.192404 12.615107 28.347979 12.615107 C 28.405129 12.615107 28.465206 12.627878 28.490606 12.634228 L 28.490606 12.284895 C 28.468381 12.278545 28.446023 12.272493 28.407923 12.272493 z M 35.573894 12.272493 C 35.078595 12.272493 34.939308 12.640404 34.939308 13.170629 C 34.939308 13.700853 35.10082 14.069282 35.573894 14.069282 C 36.050144 14.069282 36.212098 13.700853 36.212098 13.170629 C 36.212098 12.640404 36.072369 12.272493 35.573894 12.272493 z M 37.044089 12.272493 C 36.548789 12.272493 36.408985 12.640404 36.408985 13.170629 C 36.408985 13.700853 36.571014 14.069282 37.044089 14.069282 C 37.520338 14.069282 37.682293 13.700853 37.682293 13.170629 C 37.682293 12.640404 37.542563 12.272493 37.044089 12.272493 z M 6.4655935 12.316934 L 6.4655935 14.02484 L 6.808725 14.02484 L 6.808725 12.316934 L 6.4655935 12.316934 z M 12.26989 12.316934 L 12.26989 13.51066 C 12.26989 13.951984 12.441188 14.069282 12.695187 14.069282 C 12.885687 14.069282 13.047679 13.977252 13.133404 13.824853 L 13.142705 13.824853 L 13.142705 14.02484 L 13.466717 14.02484 L 13.466717 12.316934 L 13.123585 12.316934 L 13.123585 13.51066 C 13.123585 13.70116 12.990582 13.796431 12.844532 13.796431 C 12.698482 13.796431 12.612505 13.732682 12.612505 13.542182 L 12.612505 12.316934 L 12.26989 12.316934 z M 15.339987 12.316934 L 15.339987 14.02484 L 15.682602 14.02484 L 15.682602 12.316934 L 15.339987 12.316934 z M 16.927487 12.316934 L 16.927487 14.02484 L 17.270102 14.02484 L 17.270102 12.316934 L 16.927487 12.316934 z M 26.972869 12.316934 L 26.972869 14.02484 L 27.316 14.02484 L 27.316 12.316934 L 26.972869 12.316934 z M 40.136407 12.316934 L 40.136407 14.02484 L 40.479538 14.02484 L 40.479538 12.316934 L 40.136407 12.316934 z M 35.573894 12.526224 C 35.824719 12.526224 35.869484 12.792804 35.869484 13.170629 C 35.869484 13.605603 35.824719 13.815034 35.573894 13.815034 C 35.326245 13.815034 35.281922 13.605603 35.281922 13.170629 C 35.281922 12.792804 35.326245 12.526224 35.573894 12.526224 z M 37.044089 12.526224 C 37.294914 12.526224 37.339161 12.792804 37.339161 13.170629 C 37.339161 13.605603 37.294914 13.815034 37.044089 13.815034 C 36.796439 13.815034 36.752117 13.605603 36.752117 13.170629 C 36.752117 12.792804 36.796439 12.526224 37.044089 12.526224 z M 14.358652 12.545344 C 14.622177 12.545344 14.669744 12.780175 14.669744 13.189749 C 14.669744 13.554874 14.615822 13.796431 14.380873 13.796431 C 14.142748 13.796431 14.092001 13.551777 14.092001 13.164428 C 14.092001 12.704053 14.161802 12.545344 14.358652 12.545344 z M 19.750054 12.545344 C 19.988179 12.545344 20.022906 12.853505 20.022906 13.132905 C 20.022906 13.40278 19.994533 13.73907 19.727833 13.73907 C 19.473833 13.73907 19.461183 13.408985 19.461183 13.116885 C 19.461183 12.799386 19.502404 12.545344 19.750054 12.545344 z M 21.953537 12.958239 L 22.413974 13.605744 C 22.328249 13.697819 22.213941 13.780411 22.061541 13.780411 C 21.851991 13.780411 21.677068 13.621359 21.677068 13.418159 C 21.677068 13.249884 21.7567 13.119858 21.886874 13.015083 L 21.953537 12.958239 z M 5.129241 12.967541 L 5.4656546 12.967541 C 5.6752043 12.967541 5.8211884 13.107022 5.8211884 13.351496 C 5.8211884 13.611846 5.7037752 13.751989 5.4878754 13.751989 L 5.129241 13.751989 L 5.129241 12.967541 z M 7.9518077 13.123087 L 7.9518077 13.408857 C 7.9518077 13.659682 7.850191 13.815034 7.6438162 13.815034 C 7.5009413 13.815034 7.4309093 13.701077 7.4309093 13.558202 C 7.4309093 13.431202 7.4725275 13.329358 7.5709524 13.281733 C 7.6725523 13.234108 7.8629078 13.192937 7.9518077 13.123087 z M 26.284022 13.123087 L 26.284022 13.408857 C 26.284022 13.659682 26.182405 13.815034 25.976031 13.815034 C 25.833156 13.815034 25.76364 13.701077 25.76364 13.558202 C 25.76364 13.431202 25.804742 13.329358 25.903167 13.281733 C 26.004767 13.234108 26.195122 13.192937 26.284022 13.123087 z " />
  </g>
</svg>
